<?xml version="1.0" encoding="utf-8"?>
<!-- Generator: Adobe Illustrator 17.0.0, SVG Export Plug-In . SVG Version: 6.00 Build 0)  -->
<!DOCTYPE svg PUBLIC "-//W3C//DTD SVG 1.1//EN" "http://www.w3.org/Graphics/SVG/1.1/DTD/svg11.dtd">
<svg version="1.1" id="Capa_1" xmlns="http://www.w3.org/2000/svg" xmlns:xlink="http://www.w3.org/1999/xlink" x="0px" y="0px"
	 width="141.73px" height="141.73px" viewBox="0 0 141.73 141.73" enable-background="new 0 0 141.73 141.73" xml:space="preserve">
<g>
	<g>
		<path fill="#83BEE9" d="M39.202,59.276c0.748,0,1.495-0.249,1.994-0.997c0.498-0.748,0.498-1.495,0.498-2.243l-7.975-26.668
			c-0.249-0.498-0.498-0.748-0.748-1.246c-2.492-1.994-6.978-2.742-10.468-2.991c-0.249,0-0.249,0-0.498,0h-0.249h-0.498
			c-0.249,0-0.249,0-0.498,0c-3.489,0.249-7.975,0.748-10.468,2.991c-0.249,0.249-0.748,0.748-0.748,1.246L1.319,56.285
			c-0.249,0.748,0,1.495,0.498,2.243c0.498,0.748,1.246,0.997,1.994,0.997h5.234v5.732c-1.495,0.748-2.492,2.492-2.492,4.237
			c0,2.742,2.243,4.985,4.985,4.985s4.985-2.243,4.985-4.985c0-1.745-0.997-3.489-2.492-4.237v-5.732h4.985v52.089h-9.72
			c-1.495,0-2.492,0.997-2.492,2.492c0,1.495,0.997,2.492,2.492,2.492H33.47c1.495,0,2.492-0.997,2.492-2.492
			c0-1.495-0.997-2.492-2.492-2.492h-9.72V59.525h15.452V59.276z M13.78,31.86c1.246-0.748,4.237-1.246,7.228-1.246h0.249h0.249
			h0.249c3.24,0,5.982,0.748,7.228,1.246l6.729,22.431H7.051L13.78,31.86z"/>
		<path fill="#83BEE9" d="M135.258,84.199h-1.246V70.99c0-7.975-4.735-12.96-12.96-12.96H98.87c-4.735,0-8.225,1.745-10.468,4.486
			c-2.243-2.991-5.732-4.486-10.468-4.486H55.753c-7.975,0-12.96,4.735-12.96,12.96v13.209h-1.246c-2.991,0-5.483,2.492-5.483,5.483
			v13.708c0,2.991,2.492,5.483,5.483,5.483h1.246v4.985c0,1.495,0.997,2.492,2.492,2.492s2.492-0.997,2.492-2.492v-4.985h81v4.985
			c0,1.495,0.997,2.492,2.492,2.492s2.492-0.997,2.492-2.492v-4.985h1.246c2.991,0,5.483-2.492,5.483-5.483V89.682
			C140.741,86.691,138.249,84.199,135.258,84.199z M98.87,63.014h22.182c5.234,0,7.975,2.492,7.975,7.975v13.209H90.895V70.99
			C90.895,65.507,93.636,63.014,98.87,63.014z M47.778,70.99c0-5.234,2.492-7.975,7.975-7.975h22.182
			c5.234,0,7.975,2.492,7.975,7.975v13.209H47.778V70.99z M135.756,103.39c0,0.249-0.249,0.498-0.498,0.498H41.796
			c-0.249,0-0.498-0.249-0.498-0.498V89.682c0-0.249,0.249-0.498,0.498-0.498h93.462c0.249,0,0.498,0.249,0.498,0.498V103.39z"/>
		<circle fill="#83BEE9" cx="57.248" cy="73.98" r="2.492"/>
		<circle fill="#83BEE9" cx="76.689" cy="73.98" r="2.492"/>
		<circle fill="#83BEE9" cx="100.116" cy="73.98" r="2.492"/>
		<circle fill="#83BEE9" cx="119.806" cy="73.98" r="2.492"/>
	</g>
</g>
</svg>
