<?xml version="1.0" encoding="utf-8"?>
<!-- Generator: Adobe Illustrator 17.0.0, SVG Export Plug-In . SVG Version: 6.00 Build 0)  -->
<!DOCTYPE svg PUBLIC "-//W3C//DTD SVG 1.1//EN" "http://www.w3.org/Graphics/SVG/1.1/DTD/svg11.dtd">
<svg version="1.1" id="Capa_1" xmlns="http://www.w3.org/2000/svg" xmlns:xlink="http://www.w3.org/1999/xlink" x="0px" y="0px"
	 width="101.777px" height="135.703px" viewBox="0 0 101.777 135.703" enable-background="new 0 0 101.777 135.703"
	 xml:space="preserve">
<g>
	<g>
		<defs>
			<rect id="SVGID_1_" x="0" width="101.777" height="135.703"/>
		</defs>
		<clipPath id="SVGID_2_">
			<use xlink:href="#SVGID_1_"  overflow="visible"/>
		</clipPath>
		<path clip-path="url(#SVGID_2_)" fill="#E9BD4C" d="M56.543,9.211c-18.475,9.807-52.014,0-52.014,0v67.851
			c0,0,33.538,9.807,52.014,0c18.475-9.796,42.97,0,42.97,0V9.211C99.512,9.211,75.018-0.585,56.543,9.211L56.543,9.211z
			 M56.543,9.211"/>
	</g>
	<path fill="#424A60" d="M2.265,0C1.015,0,0,1.015,0,2.265v131.173c0,1.25,1.015,2.265,2.265,2.265c1.247,0,2.265-1.015,2.265-2.265
		V2.265C4.529,1.015,3.511,0,2.265,0L2.265,0z M2.265,0"/>
</g>
</svg>
