<?xml version="1.0" encoding="utf-8"?>
<!-- Generator: Adobe Illustrator 17.0.0, SVG Export Plug-In . SVG Version: 6.00 Build 0)  -->
<!DOCTYPE svg PUBLIC "-//W3C//DTD SVG 1.1//EN" "http://www.w3.org/Graphics/SVG/1.1/DTD/svg11.dtd">
<svg version="1.1" id="Capa_1" xmlns="http://www.w3.org/2000/svg" xmlns:xlink="http://www.w3.org/1999/xlink" x="0px" y="0px"
	 width="141.73px" height="141.73px" viewBox="0 0 141.73 141.73" enable-background="new 0 0 141.73 141.73" xml:space="preserve">
<g>
	<g>
		<path fill="#83BEE9" d="M120.245,28.121c3.857,0,7.481-1.699,9.94-4.651l10.7-12.787c0.777-0.922,1.142-2.088,1.032-3.288
			c-0.11-1.195-0.679-2.273-1.577-3.021c-1.821-1.543-4.767-1.299-6.339,0.557l-10.688,12.776c-0.765,0.91-1.885,1.432-3.068,1.432
			H95.43c-2.476,0-4.489,2.012-4.489,4.489s2.012,4.494,4.489,4.494h11.784l-14.04,46.284L60.86,60.893
			c-1.229-0.632-3.81-1.63-7.881-3.056l-1.275,2.702l0,0l1.212-2.691l-0.58-0.215c-3.335-0.868-6.784-1.305-10.258-1.334
			l-4.935-11.256h9.208c5.167,0,9.372-4.141,9.372-9.232v-4.164c0-5.092-4.204-9.238-9.372-9.238h-33.52
			c-5.08,0-9.058,4.059-9.058,9.238v4.164c0,5.179,3.978,9.232,9.058,9.232h14.503L32.7,57.277
			C13.907,61.407-0.206,78.134-0.206,98.112c0,11.123,4.396,21.376,12.37,28.886c0.899,0.844,1.842,1.634,2.809,2.389H7.31
			c-2.47,0-4.483,2.018-4.483,4.494c0,2.476,2.012,4.489,4.483,4.489h128.32c2.476,0,4.489-2.012,4.489-4.489
			c0-2.476-2.012-4.494-4.489-4.494h-8.133c4.64-4.986,7.542-11.61,7.542-18.935c0-11.697-7.394-22.24-18.262-26.178l-15.273-6.386
			l15.089-49.768H120.245z M41.717,129.388c-18.476,0-32.951-13.738-32.951-31.275c0-18.123,14.782-32.864,32.951-32.864
			c2.824,0,5.614,0.354,8.09,0.992c2.25,0.766,6.037,2.157,7.342,2.813l56.404,23.597c7.487,2.714,12.521,9.865,12.521,17.804
			c0,10.439-8.525,18.935-18.998,18.935H41.717z M12.796,31.392c0,0,0.012-0.006,0.035-0.006l33.914,0.261l-0.394,4.425
			L12.75,35.811L12.796,31.392z"/>
		<path fill="#83BEE9" d="M66.671,116.409h-6.841l-4.769-8.652c2.502-2.772,4.07-6.402,4.07-10.421
			c0-8.623-7.023-15.635-15.658-15.635S27.81,88.712,27.81,97.335s7.029,15.635,15.664,15.635c1.356,0,2.648-0.226,3.904-0.551
			l2.205,3.99h-3.644c-2.47,0-4.483,2.012-4.483,4.489s2.012,4.494,4.483,4.494h20.732c2.476,0,4.494-2.018,4.494-4.494
			S69.147,116.409,66.671,116.409z M43.474,90.678c3.683,0,6.681,2.987,6.681,6.658c0,3.665-2.998,6.652-6.681,6.652
			c-3.683,0-6.681-2.987-6.681-6.652C36.793,93.664,39.792,90.678,43.474,90.678z"/>
	</g>
</g>
</svg>
