<?xml version="1.0" encoding="utf-8"?>
<!-- Generator: Adobe Illustrator 17.0.0, SVG Export Plug-In . SVG Version: 6.00 Build 0)  -->
<!DOCTYPE svg PUBLIC "-//W3C//DTD SVG 1.1//EN" "http://www.w3.org/Graphics/SVG/1.1/DTD/svg11.dtd">
<svg version="1.1" id="Capa_1" xmlns="http://www.w3.org/2000/svg" xmlns:xlink="http://www.w3.org/1999/xlink" x="0px" y="0px"
	 width="141.73px" height="141.73px" viewBox="0 0 141.73 141.73" enable-background="new 0 0 141.73 141.73" xml:space="preserve">
<g>
	<g>
		<path fill="#83BEE9" d="M82.785,102.291c-0.758,0-1.505,0.05-2.24,0.137l-7.037-26.262c-0.317-1.184-1.391-2.008-2.617-2.008
			h-6.404c-1.496,0-2.709,1.213-2.709,2.709c0,1.496,1.213,2.709,2.709,2.709h4.325l3.241,12.095H35.489l-2.848-4.916h8.954
			c1.496,0,2.709-1.213,2.709-2.709c0-1.496-1.213-2.709-2.709-2.709H27.941c-0.969,0-1.864,0.517-2.347,1.356
			c-0.484,0.839-0.482,1.873,0.003,2.711l5.254,9.07l-4.399,8.789c-1.88-0.626-3.889-0.97-5.977-0.97
			c-10.457,0-18.963,8.507-18.963,18.964s8.507,18.964,18.963,18.964c9.53,0,17.438-7.068,18.765-16.236l10.268,0.01
			c0.002,0,0.004,0,0.006,0c0.013,0,0.026-0.002,0.039-0.002c0.09-0.001,0.179-0.007,0.268-0.017
			c0.039-0.005,0.078-0.012,0.117-0.018c0.067-0.011,0.133-0.023,0.199-0.039c0.039-0.009,0.079-0.019,0.118-0.03
			c0.077-0.022,0.153-0.048,0.229-0.077c0.024-0.009,0.048-0.017,0.072-0.027c0.099-0.041,0.195-0.089,0.288-0.142
			c0.008-0.005,0.017-0.008,0.026-0.013c0.03-0.017,0.057-0.037,0.086-0.056c0.038-0.024,0.076-0.047,0.113-0.073
			c0.042-0.029,0.081-0.061,0.121-0.092c0.03-0.024,0.061-0.047,0.09-0.072c0.044-0.037,0.084-0.077,0.125-0.117
			c0.017-0.017,0.036-0.032,0.053-0.049l22.746-23.472l1.107,4.132c-6.751,2.907-11.49,9.622-11.49,17.426
			c0,10.457,8.507,18.964,18.964,18.964s18.964-8.507,18.964-18.964C101.749,110.798,93.242,102.291,82.785,102.291z
			 M34.101,100.084l10.708,18.485l-5.564-0.005c-0.759-5.317-3.731-9.929-7.951-12.871L34.101,100.084z M28.834,110.607
			c2.48,1.952,4.267,4.747,4.917,7.951l-8.892-0.009L28.834,110.607z M20.475,134.8c-7.469,0-13.545-6.077-13.545-13.546
			c0-7.469,6.077-13.546,13.545-13.546c1.216,0,2.395,0.164,3.517,0.466l-5.94,11.867c-0.42,0.839-0.376,1.836,0.117,2.635
			c0.493,0.799,1.364,1.285,2.303,1.287l13.274,0.013C32.483,130.146,27.012,134.8,20.475,134.8z M50.06,116.825L38.628,97.088
			h30.558L50.06,116.825z M82.785,134.8c-7.469,0-13.546-6.077-13.546-13.546c0-5.295,3.056-9.887,7.495-12.114l3.434,12.815
			c0.324,1.21,1.419,2.009,2.615,2.009c0.232,0,0.468-0.03,0.703-0.093c1.445-0.387,2.303-1.873,1.916-3.318l-3.435-12.817
			c0.271-0.016,0.543-0.027,0.818-0.027c7.469,0,13.546,6.077,13.546,13.546C96.33,128.724,90.254,134.8,82.785,134.8z"/>
		<path fill="#83BEE9" d="M132.091,1.512H99.582c-4.481,0-8.127,3.646-8.127,8.127v32.509c0,4.481,3.646,8.127,8.127,8.127h13.546
			v69.777h-3.251c-1.307,0-2.428,0.934-2.665,2.22l-2.709,14.748c-0.145,0.791,0.069,1.605,0.583,2.223
			c0.515,0.618,1.277,0.975,2.082,0.975h17.339c0.804,0,1.567-0.357,2.082-0.975c0.514-0.618,0.728-1.433,0.583-2.223l-2.709-14.748
			c-0.236-1.286-1.357-2.22-2.665-2.22h-3.251V50.276h13.546c4.481,0,8.127-3.646,8.127-8.127V9.639
			C140.218,5.158,136.572,1.512,132.091,1.512z M121.254,134.8h-10.834l1.714-9.33h7.407L121.254,134.8z M134.8,42.148
			c0,1.494-1.215,2.709-2.709,2.709H99.582c-1.494,0-2.709-1.215-2.709-2.709V9.639c0-1.494,1.215-2.709,2.709-2.709h32.509
			c1.494,0,2.709,1.215,2.709,2.709V42.148z"/>
		<path fill="#83BEE9" d="M115.836,13.129h-6.059c-1.496,0-2.709,1.213-2.709,2.709v12.119v7.992c0,1.496,1.213,2.709,2.709,2.709
			c1.496,0,2.709-1.213,2.709-2.709v-5.283h3.35c4.835,0,8.769-3.934,8.769-8.769C124.606,17.062,120.672,13.129,115.836,13.129z
			 M115.836,25.248h-3.35v-6.702h3.35c1.848,0,3.351,1.503,3.351,3.351C119.187,23.745,117.684,25.248,115.836,25.248z"/>
		<path fill="#83BEE9" d="M25.272,97.088c1.492,0,2.709-1.217,2.709-2.709s-1.217-2.709-2.709-2.709
			c-1.492,0-2.709,1.217-2.709,2.709S23.78,97.088,25.272,97.088z"/>
		<path fill="#83BEE9" d="M83.382,97.088c1.492,0,2.709-1.217,2.709-2.709s-1.217-2.709-2.709-2.709
			c-1.492,0-2.709,1.217-2.709,2.709S81.89,97.088,83.382,97.088z"/>
	</g>
</g>
</svg>
