<?xml version="1.0" encoding="utf-8"?>
<!-- Generator: Adobe Illustrator 17.0.0, SVG Export Plug-In . SVG Version: 6.00 Build 0)  -->
<!DOCTYPE svg PUBLIC "-//W3C//DTD SVG 1.1//EN" "http://www.w3.org/Graphics/SVG/1.1/DTD/svg11.dtd">
<svg version="1.1" id="Capa_1" xmlns="http://www.w3.org/2000/svg" xmlns:xlink="http://www.w3.org/1999/xlink" x="0px" y="0px"
	 width="141.73px" height="141.73px" viewBox="0 0 141.73 141.73" enable-background="new 0 0 141.73 141.73" xml:space="preserve">
<g>
	<path fill="#83BEE9" d="M135.301,138.23H111.87c-1.617,0-2.929-1.312-2.929-2.929v-2.929H32.789v2.929
		c0,1.617-1.312,2.929-2.929,2.929H6.429c-1.617,0-2.929-1.312-2.929-2.929V6.429C3.5,4.812,4.812,3.5,6.429,3.5h128.872
		c1.617,0,2.929,1.312,2.929,2.929v128.872C138.23,136.918,136.918,138.23,135.301,138.23z M114.799,132.372h17.573V9.358H9.358
		v123.014h17.573v-2.929c0-1.617,1.312-2.929,2.929-2.929h82.01c1.617,0,2.929,1.312,2.929,2.929V132.372z"/>
	<path fill="#83BEE9" d="M111.87,132.372H29.86c-1.617,0-2.929-1.312-2.929-2.929V35.718c0-1.617,1.312-2.929,2.929-2.929h82.01
		c1.617,0,2.929,1.312,2.929,2.929v93.725C114.799,131.06,113.487,132.372,111.87,132.372z M32.789,126.514h76.152V38.647H32.789
		V126.514z"/>
	<path fill="#83BEE9" d="M70.865,132.372c-1.617,0-2.929-1.312-2.929-2.929V35.718c0-1.617,1.312-2.929,2.929-2.929
		s2.929,1.312,2.929,2.929v93.725C73.794,131.06,72.482,132.372,70.865,132.372z"/>
</g>
</svg>
