<?xml version="1.0" encoding="utf-8"?>
<!-- Generator: Adobe Illustrator 17.0.0, SVG Export Plug-In . SVG Version: 6.00 Build 0)  -->
<!DOCTYPE svg PUBLIC "-//W3C//DTD SVG 1.1//EN" "http://www.w3.org/Graphics/SVG/1.1/DTD/svg11.dtd">
<svg version="1.1" id="Capa_1" xmlns="http://www.w3.org/2000/svg" xmlns:xlink="http://www.w3.org/1999/xlink" x="0px" y="0px"
	 width="141.73px" height="141.73px" viewBox="0 0 141.73 141.73" enable-background="new 0 0 141.73 141.73" xml:space="preserve">
<g>
	<g>
		<path fill="#83BEE9" d="M87.457,29.992H7.053C3.164,29.992,0,33.158,0,37.045v48.727c0,3.889,3.164,7.054,7.053,7.054h28.494
			v10.137H23.128c-1.908,0-3.456,1.547-3.456,3.458v4.991c0,1.911,1.547,3.458,3.456,3.458h48.251c1.911,0,3.458-1.547,3.458-3.458
			v-4.991c0-1.911-1.547-3.458-3.458-3.458H58.964V92.826h28.492c3.887,0,7.051-3.164,7.051-7.054V37.045
			C94.51,33.158,91.343,29.992,87.457,29.992L87.457,29.992z M87.317,85.635L7.19,85.772L7.053,37.185l80.263-0.14V85.635z
			 M87.317,85.635"/>
		<path fill="#83BEE9" d="M138.464,26.412h-34.686c-1.801,0-3.266,1.463-3.266,3.266v82.376c0,1.802,1.465,3.264,3.266,3.264h34.686
			c1.804,0,3.266-1.462,3.266-3.264V29.678C141.73,27.874,140.268,26.412,138.464,26.412L138.464,26.412z M109.777,31.923h22.689
			c1.326,0,2.397,1.071,2.397,2.396c0,1.323-1.071,2.397-2.397,2.397h-22.689c-1.325,0-2.397-1.073-2.397-2.397
			C107.38,32.994,108.452,31.923,109.777,31.923L109.777,31.923z M121.118,109.296c-2.025,0-3.662-1.639-3.662-3.662
			c0-2.028,1.637-3.667,3.662-3.667c2.028,0,3.665,1.639,3.665,3.667C124.783,107.657,123.146,109.296,121.118,109.296
			L121.118,109.296z M121.118,94.019c-2.792,0-5.052-2.265-5.052-5.058c0-2.795,2.26-5.057,5.052-5.057
			c2.796,0,5.058,2.262,5.058,5.057C126.176,91.754,123.914,94.019,121.118,94.019L121.118,94.019z M135.9,57.435
			c0,1.335-1.084,2.419-2.419,2.419h-24.718c-1.335,0-2.419-1.084-2.419-2.419v-7.46c0-1.335,1.084-2.419,2.419-2.419h24.718
			c1.336,0,2.419,1.084,2.419,2.419V57.435z M135.9,57.435"/>
	</g>
</g>
</svg>
