<?xml version="1.0" encoding="utf-8"?>
<!-- Generator: Adobe Illustrator 17.0.0, SVG Export Plug-In . SVG Version: 6.00 Build 0)  -->
<!DOCTYPE svg PUBLIC "-//W3C//DTD SVG 1.1//EN" "http://www.w3.org/Graphics/SVG/1.1/DTD/svg11.dtd">
<svg version="1.1" id="Capa_1" xmlns="http://www.w3.org/2000/svg" xmlns:xlink="http://www.w3.org/1999/xlink" x="0px" y="0px"
	 width="141.73px" height="141.73px" viewBox="0 0 141.73 141.73" enable-background="new 0 0 141.73 141.73" xml:space="preserve">
<path fill="#83BEE9" d="M126.57,113.492v-2.212c0-6.719-5.466-12.185-12.185-12.185c-3.789,0-7.341-1.476-10.013-4.152L74.452,65.04
	l-0.188,0.372c-2.504-1.668-5.345-2.731-8.34-3.144V50.87h6.855L40.213,29.157v-6.972h-5.948v6.971L1.682,50.87h7.074v65.595h0.228
	v3.079h5.493v-3.079h0.228V85.153h10.99v31.313h5.948v-5.948h11.191v5.948h5.948V85.153h11.195v31.313h0.228v2.974h5.493v-2.974
	h0.228V85.484c2.643,0.566,5.083,1.868,7.047,3.829l24.239,24.239c3.806,3.793,8.856,5.882,14.226,5.882v0.004h28.61v-5.948H126.57z
	 M54.265,68.014h5.712v11.191h-5.528L54.265,68.014z M37.239,34.331l15.882,10.591H21.349L37.239,34.331z M59.976,50.87v11.195
	h-5.712c-3.154,0-5.716,2.562-5.716,5.716v11.423H26.14V67.781c0-3.154-2.567-5.716-5.72-5.716h-5.716V50.87H59.976z M14.704,67.933
	l5.488-0.151v11.423h-5.488V67.933z M31.642,104.569v-10.49h11.191v10.49H31.642z M42.833,88.131H31.642v-2.978h11.191V88.131z
	 M101.42,109.344L72.1,80.019v1.38c-1.93-0.989-4.014-1.632-6.176-1.951V68.285c2.723,0.54,5.228,1.872,7.24,3.881l26.999,26.977
	c3.789,3.806,8.839,5.9,14.222,5.9c3.438,0,6.237,2.799,6.237,6.237v2.208h-9.185C107.657,113.487,104.096,112.011,101.42,109.344z"
	/>
</svg>
