<?xml version="1.0" encoding="utf-8"?>
<!-- Generator: Adobe Illustrator 17.0.0, SVG Export Plug-In . SVG Version: 6.00 Build 0)  -->
<!DOCTYPE svg PUBLIC "-//W3C//DTD SVG 1.1//EN" "http://www.w3.org/Graphics/SVG/1.1/DTD/svg11.dtd">
<svg version="1.1" id="Capa_1" xmlns="http://www.w3.org/2000/svg" xmlns:xlink="http://www.w3.org/1999/xlink" x="0px" y="0px"
	 width="141.73px" height="141.73px" viewBox="0 0 141.73 141.73" enable-background="new 0 0 141.73 141.73" xml:space="preserve">
<g>
	<g>
		<path fill="#83BEE9" d="M32.894,27.98h8.829c3.164,0,5.736-2.567,5.736-5.725v-3.495c0-3.164-2.572-5.736-5.736-5.736h-8.829
			c-3.158,0-5.731,2.572-5.731,5.736v3.495C27.163,25.413,29.735,27.98,32.894,27.98z M34.25,20.903v-0.792h6.116v0.792H34.25z"/>
		<path fill="#83BEE9" d="M87.097,28.723c4.526,0,8.211-3.69,8.211-8.227c0-4.526-3.685-8.211-8.211-8.211
			c-4.526,0-8.211,3.685-8.211,8.211C78.886,25.033,82.571,28.723,87.097,28.723z M85.968,20.496c0-0.624,0.505-1.129,1.129-1.129
			s1.129,0.505,1.129,1.129C88.225,21.755,85.968,21.755,85.968,20.496z"/>
		<path fill="#83BEE9" d="M106.356,28.723c4.526,0,8.211-3.69,8.211-8.227c0-4.526-3.685-8.211-8.211-8.211
			c-4.526,0-8.211,3.685-8.211,8.211C98.146,25.033,101.83,28.723,106.356,28.723z M105.222,20.496c0-0.613,0.521-1.129,1.134-1.129
			c0.624,0,1.129,0.505,1.129,1.129C107.485,21.755,105.222,21.755,105.222,20.496z"/>
		<path fill="#83BEE9" d="M117.275,2.056h-92.82c-7.945,0-14.414,6.469-14.414,14.419v108.786c0,7.945,6.469,14.414,14.414,14.414
			h92.82c7.945,0,14.414-6.469,14.414-14.414V16.475C131.689,8.525,125.22,2.056,117.275,2.056z M124.612,37.97v87.29
			c0,4.048-3.289,7.337-7.337,7.337h-92.82c-4.048,0-7.337-3.289-7.337-7.337V37.97H124.612z M24.455,9.138h92.82
			c4.048,0,7.337,3.289,7.337,7.337v14.408H17.118V16.475C17.118,12.426,20.407,9.138,24.455,9.138z"/>
		<path fill="#83BEE9" d="M36.443,92.57c4.499,15.125,18.652,25.691,34.417,25.691c19.797,0,35.909-16.107,35.909-35.904
			c0-2.42-0.239-4.824-0.765-7.375c-3.462-16.53-18.245-28.529-35.144-28.529c-19.792,0-35.898,16.107-35.898,35.904
			c0,3.365,0.472,6.702,1.4,9.92L36.443,92.57z M70.86,53.534c11.95,0,22.679,7.484,26.917,18.489
			c-10.729,0.185-17.605,5.693-23.693,10.571c-6.04,4.83-11.261,8.998-19.808,8.998c-3.099,0-6.957-0.895-11.472-2.67
			c-0.505-2.16-0.76-4.363-0.76-6.566C42.043,66.461,54.97,53.534,70.86,53.534z M54.275,98.68c11.022,0,17.735-5.362,24.247-10.566
			c6.311-5.052,11.7-9.535,20.985-8.987c0.125,1.091,0.185,2.171,0.185,3.229c0,15.89-12.932,28.816-28.833,28.816
			c-10.05,0-19.254-5.226-24.469-13.621C49.255,98.3,51.893,98.68,54.275,98.68z"/>
	</g>
</g>
</svg>
