<?xml version="1.0" encoding="utf-8"?>
<!-- Generator: Adobe Illustrator 17.0.0, SVG Export Plug-In . SVG Version: 6.00 Build 0)  -->
<!DOCTYPE svg PUBLIC "-//W3C//DTD SVG 1.1//EN" "http://www.w3.org/Graphics/SVG/1.1/DTD/svg11.dtd">
<svg version="1.1" id="Capa_1" xmlns="http://www.w3.org/2000/svg" xmlns:xlink="http://www.w3.org/1999/xlink" x="0px" y="0px"
	 width="141.73px" height="141.73px" viewBox="0 0 141.73 141.73" enable-background="new 0 0 141.73 141.73" xml:space="preserve">
<g>
	<path fill="#E9BD4C" d="M121.913,100.481c0-2.003-0.455-3.925-1.273-5.679c-0.081-0.449-0.181-0.893-0.299-1.342l-8.868-21.978
		l-0.062-0.2c-3.101-9.242-7.519-17.79-18.715-17.79H49.895c-11.475,0-15.526,8.761-18.696,17.74l-9.28,22.028
		c-1.34,2.153-2.102,4.612-2.102,7.221v6.839c0,1.061,0.125,2.091,0.363,3.09c-0.232,0.599-0.363,1.254-0.363,1.933v20.344
		c0,2.983,2.415,5.398,5.398,5.398h11.213c2.978,0,5.398-2.415,5.398-5.398v-10.171h58.721v10.171c0,2.983,2.415,5.398,5.398,5.398
		h10.571c2.983,0,5.398-2.415,5.398-5.398v-20.344c0-0.679-0.131-1.334-0.361-1.933c0.236-0.998,0.361-2.029,0.361-3.09V100.481z
		 M37.776,73.435c3.532-9.959,6.371-13.005,12.119-13.005h42.802c5.703,0,8.874,3.395,12.1,12.962l6.471,13.117
		c-2.109-0.781-4.436-1.217-6.882-1.217H37.346c-2.203,0-4.307,0.356-6.241,0.992L37.776,73.435z M43.337,109.922H31.51
		c-2.128,0-3.856-1.728-3.856-3.863c0-2.128,1.729-3.856,3.856-3.856h11.826c2.134,0,3.856,1.728,3.856,3.856
		C47.193,108.193,45.471,109.922,43.337,109.922L43.337,109.922z M85.115,109.147H57.607c-1.348,0-2.439-1.091-2.439-2.446
		c0-1.348,1.091-2.439,2.439-2.439h27.507c1.348,0,2.439,1.091,2.439,2.439C87.554,108.056,86.463,109.147,85.115,109.147
		L85.115,109.147z M109.919,109.922H98.094c-2.128,0-3.856-1.728-3.856-3.863c0-2.128,1.729-3.856,3.856-3.856h11.825
		c2.128,0,3.856,1.728,3.856,3.856C113.776,108.193,112.047,109.922,109.919,109.922L109.919,109.922z M109.919,109.922"/>
	<g>
		<g>
			<path fill="#E9BD4C" d="M105.557,17.024L94.84,6.306c-1.236-1.236-3.239-1.236-4.474,0L79.648,17.024
				c-1.022,1.022-1.222,2.595-0.496,3.844c0.726,1.249,2.216,1.841,3.604,1.452l4.77-1.332v18.004c0,1.745,1.387,3.17,3.146,3.17
				h3.858c1.762,0,3.122-1.425,3.122-3.17V20.989l4.784,1.332c1.387,0.389,2.877-0.217,3.604-1.452
				C106.765,19.619,106.576,18.046,105.557,17.024L105.557,17.024z M105.557,17.024"/>
			<path fill="#E9BD4C" d="M59.024,25.439l-4.719,1.332V6.764c0-1.748-1.48-3.118-3.225-3.118h-3.872c-1.762,0-3.16,1.37-3.16,3.118
				v20.007l-4.774-1.332c-1.384-0.389-2.864,0.217-3.59,1.452c-0.726,1.249-0.523,2.822,0.499,3.844L46.899,41.45
				c1.236,1.253,3.239,1.253,4.491,0l10.714-10.714c1.022-1.022,1.236-2.595,0.496-3.844C61.874,25.656,60.411,25.05,59.024,25.439
				L59.024,25.439z M59.024,25.439"/>
		</g>
	</g>
</g>
</svg>
