<?xml version="1.0" encoding="utf-8"?>
<!-- Generator: Adobe Illustrator 17.0.0, SVG Export Plug-In . SVG Version: 6.00 Build 0)  -->
<!DOCTYPE svg PUBLIC "-//W3C//DTD SVG 1.1//EN" "http://www.w3.org/Graphics/SVG/1.1/DTD/svg11.dtd">
<svg version="1.1" id="Capa_1" xmlns="http://www.w3.org/2000/svg" xmlns:xlink="http://www.w3.org/1999/xlink" x="0px" y="0px"
	 width="141.73px" height="141.73px" viewBox="0 0 141.73 141.73" enable-background="new 0 0 141.73 141.73" xml:space="preserve">
<g>
	<g>
		<path fill="#83BEE9" d="M33.518,28.685h8.684c3.112,0,5.642-2.525,5.642-5.631v-3.437c0-3.112-2.53-5.642-5.642-5.642h-8.684
			c-3.106,0-5.636,2.53-5.636,5.642v3.437C27.881,26.16,30.411,28.685,33.518,28.685z M34.852,21.725v-0.779h6.015v0.779H34.852z"/>
		<path fill="#83BEE9" d="M86.83,29.416c4.452,0,8.076-3.63,8.076-8.092c0-4.452-3.624-8.076-8.076-8.076
			c-4.452,0-8.076,3.624-8.076,8.076C78.754,25.786,82.378,29.416,86.83,29.416z M85.72,21.324c0-0.614,0.496-1.11,1.11-1.11
			s1.11,0.496,1.11,1.11C87.94,22.563,85.72,22.563,85.72,21.324z"/>
		<path fill="#83BEE9" d="M105.773,29.416c4.452,0,8.076-3.63,8.076-8.092c0-4.452-3.624-8.076-8.076-8.076
			c-4.452,0-8.076,3.624-8.076,8.076C97.697,25.786,101.321,29.416,105.773,29.416z M104.657,21.324c0-0.603,0.512-1.11,1.116-1.11
			c0.614,0,1.11,0.496,1.11,1.11C106.883,22.563,104.657,22.563,104.657,21.324z"/>
		<path fill="#83BEE9" d="M116.512,3.187H25.218c-7.814,0-14.177,6.362-14.177,14.182v106.997c0,7.814,6.362,14.177,14.177,14.177
			h91.294c7.814,0,14.177-6.362,14.177-14.177V17.369C130.689,9.549,124.326,3.187,116.512,3.187z M123.728,38.511v85.855
			c0,3.982-3.235,7.216-7.216,7.216H25.218c-3.982,0-7.216-3.235-7.216-7.216V38.511H123.728z M25.218,10.153h91.294
			c3.982,0,7.216,3.235,7.216,7.216V31.54H18.002V17.369C18.002,13.387,21.236,10.153,25.218,10.153z"/>
		<path fill="#83BEE9" d="M37.009,92.213c4.425,14.876,18.345,25.268,33.851,25.268c19.472,0,35.319-15.842,35.319-35.313
			c0-2.381-0.235-4.745-0.753-7.254c-3.405-16.258-17.945-28.06-34.566-28.06c-19.466,0-35.308,15.842-35.308,35.313
			c0,3.309,0.464,6.592,1.377,9.757L37.009,92.213z M70.86,53.819c11.753,0,22.306,7.361,26.474,18.185
			c-10.552,0.181-17.315,5.599-23.304,10.398c-5.941,4.75-11.075,8.85-19.482,8.85c-3.048,0-6.843-0.881-11.284-2.626
			c-0.496-2.124-0.747-4.291-0.747-6.458C42.517,66.534,55.231,53.819,70.86,53.819z M54.548,98.223
			c10.841,0,17.443-5.274,23.848-10.392c6.208-4.969,11.508-9.378,20.64-8.839c0.123,1.073,0.181,2.135,0.181,3.176
			c0,15.628-12.719,28.343-28.359,28.343c-9.885,0-18.938-5.14-24.067-13.397C49.611,97.849,52.205,98.223,54.548,98.223z"/>
	</g>
</g>
</svg>
