<?xml version="1.0" encoding="utf-8"?>
<!-- Generator: Adobe Illustrator 17.0.0, SVG Export Plug-In . SVG Version: 6.00 Build 0)  -->
<!DOCTYPE svg PUBLIC "-//W3C//DTD SVG 1.1//EN" "http://www.w3.org/Graphics/SVG/1.1/DTD/svg11.dtd">
<svg version="1.1" id="Capa_1" xmlns="http://www.w3.org/2000/svg" xmlns:xlink="http://www.w3.org/1999/xlink" x="0px" y="0px"
	 width="141.73px" height="141.73px" viewBox="0 0 141.73 141.73" enable-background="new 0 0 141.73 141.73" xml:space="preserve">
<g>
	<g>
		<g>
			<path fill="#83BEE9" d="M61.54,75.332c0.394-1.66-0.631-3.326-2.294-3.724c-2.39-0.559-5.881-5.779-5.568-8.329
				c0.208-1.691-0.998-3.237-2.689-3.44c-1.696-0.206-3.231,0.998-3.441,2.689c-0.688,5.634,4.883,13.819,10.278,15.101
				c0.236,0.053,0.476,0.078,0.711,0.078C59.938,77.707,61.205,76.745,61.54,75.332L61.54,75.332z"/>
			<path fill="#83BEE9" d="M61.54,75.332"/>
			<path fill="#83BEE9" d="M109.743,112.809c-0.609,0-1.207,0.039-1.798,0.117l-8.233-20.382c4.055-2.319,7.738-5.328,10.934-8.96
				c7.456-8.482,11.73-19.792,11.73-31.036c0-1.705-1.383-3.084-3.087-3.084H36.934c-1.703,0-3.09,1.379-3.09,3.084
				c0,2.03,0.141,4.06,0.413,6.074H20.931c-1.703,0-3.087,1.382-3.087,3.079c0,1.71,1.383,3.09,3.087,3.09h14.59
				c1.89,6.914,5.337,13.421,10.056,18.794c3.103,3.526,6.665,6.46,10.577,8.743L38.96,136.122
				c-0.623,1.588,0.159,3.379,1.748,4.002c0.373,0.15,0.751,0.22,1.131,0.22c1.228,0,2.396-0.745,2.871-1.961l3.909-9.942h47.113
				c0.93,6.71,6.859,11.903,14.012,11.903c7.799,0,14.143-6.177,14.143-13.769C123.886,118.988,117.543,112.809,109.743,112.809z
				 M50.216,79.512c-5.794-6.596-9.379-15.156-10.07-23.877h75.935c-0.691,8.721-4.274,17.281-10.07,23.877
				c-2.625,2.984-6.332,6.274-11.278,8.73c-0.024,0.008-0.043,0.014-0.074,0.025c-0.149,0.067-0.295,0.144-0.425,0.217
				c-4.387,2.091-9.718,3.515-16.11,3.515c-6.551,0-11.997-1.491-16.43-3.66c-0.174-0.111-0.353-0.2-0.544-0.278
				c-0.01,0-0.014-0.006-0.022-0.011C56.366,85.619,52.781,82.424,50.216,79.512z M96.308,122.262H51.036L61.72,95.055
				c5.096,2.05,10.63,3.123,16.404,3.123c5.625,0,11.025-1.018,16.016-2.97l7.98,19.778
				C99.414,116.674,97.338,119.238,96.308,122.262z M109.743,134.167c-4.397,0-7.977-3.404-7.977-7.592
				c0-4.185,3.58-7.587,7.977-7.587c4.395,0,7.973,3.401,7.973,7.587C117.716,130.763,114.138,134.167,109.743,134.167z"/>
			<path fill="#83BEE9" d="M109.743,134.167"/>
			<path fill="#83BEE9" d="M53.366,39.574c-1.403,0.962-1.76,2.892-0.797,4.294c0.597,0.876,1.563,1.343,2.545,1.343
				c0.603,0,1.215-0.178,1.747-0.545c10.084-6.922,5.508-14.358,3.319-17.934c-2.435-3.949-3.467-6.177,1.541-9.614
				c1.409-0.971,1.762-2.887,0.797-4.291c-0.962-1.41-2.891-1.763-4.295-0.806c-10.081,6.928-5.505,14.369-3.308,17.943
				C57.341,33.918,58.38,36.14,53.366,39.574L53.366,39.574z"/>
			<path fill="#83BEE9" d="M53.366,39.574"/>
			<path fill="#83BEE9" d="M94.916,39.574c-1.408,0.962-1.766,2.89-0.797,4.294c0.596,0.876,1.556,1.343,2.542,1.343
				c0.601,0,1.211-0.178,1.744-0.545c10.08-6.922,5.508-14.361,3.312-17.934c-2.428-3.949-3.462-6.177,1.546-9.614
				c1.405-0.971,1.76-2.887,0.798-4.291c-0.967-1.41-2.888-1.763-4.291-0.806c-10.08,6.928-5.504,14.369-3.311,17.943
				C98.883,33.918,99.921,36.14,94.916,39.574L94.916,39.574z"/>
			<path fill="#83BEE9" d="M94.916,39.574"/>
			<path fill="#83BEE9" d="M71.88,39.574c-1.405,0.962-1.762,2.892-0.797,4.294c0.599,0.876,1.569,1.343,2.55,1.343
				c0.599,0,1.211-0.178,1.742-0.545c12.887-8.849,7.017-18.399,4.201-22.985c-3.494-5.687-5.07-9.508,2.435-14.664
				c1.405-0.968,1.762-2.892,0.797-4.294c-0.967-1.405-2.888-1.758-4.288-0.795c-12.89,8.849-7.018,18.396-4.199,22.985
				C77.808,30.6,79.386,34.424,71.88,39.574L71.88,39.574z"/>
			<path fill="#83BEE9" d="M71.88,39.574"/>
		</g>
	</g>
</g>
</svg>
