<?xml version="1.0" encoding="utf-8"?>
<!-- Generator: Adobe Illustrator 17.0.0, SVG Export Plug-In . SVG Version: 6.00 Build 0)  -->
<!DOCTYPE svg PUBLIC "-//W3C//DTD SVG 1.1//EN" "http://www.w3.org/Graphics/SVG/1.1/DTD/svg11.dtd">
<svg version="1.1" id="Capa_1" xmlns="http://www.w3.org/2000/svg" xmlns:xlink="http://www.w3.org/1999/xlink" x="0px" y="0px"
	 width="141.73px" height="141.73px" viewBox="0 0 141.73 141.73" enable-background="new 0 0 141.73 141.73" xml:space="preserve">
<g>
	<g>
		<path id="SVGCleanerId_0_18_" fill="#E9BD4C" d="M101.573,141.73H40.157c-1.304,0-2.362-1.056-2.362-2.362V87.4
			c0-1.306,1.058-2.362,2.362-2.362h61.416c1.306,0,2.362,1.056,2.362,2.362v51.968C103.935,140.674,102.879,141.73,101.573,141.73z
			 M42.519,137.006h56.692V89.762H42.519V137.006z"/>
		<g>
			<path id="SVGCleanerId_0_17_" fill="#E9BD4C" d="M101.573,141.73H40.157c-1.304,0-2.362-1.056-2.362-2.362V87.4
				c0-1.306,1.058-2.362,2.362-2.362h61.416c1.306,0,2.362,1.056,2.362,2.362v51.968C103.935,140.674,102.879,141.73,101.573,141.73
				z M42.519,137.006h56.692V89.762H42.519V137.006z"/>
		</g>
		<path fill="#E9BD4C" d="M40.157,141.73H2.362c-1.304,0-2.362-1.056-2.362-2.362V87.4c0-1.306,1.058-2.362,2.362-2.362h37.795
			c1.304,0,2.362,1.056,2.362,2.362v51.968C42.519,140.674,41.461,141.73,40.157,141.73z M4.724,137.006h33.07V89.762H4.724V137.006
			z"/>
		<path fill="#E9BD4C" d="M139.368,141.73h-37.795c-1.306,0-2.362-1.056-2.362-2.362V87.4c0-1.306,1.056-2.362,2.362-2.362h37.795
			c1.306,0,2.362,1.056,2.362,2.362v51.968C141.73,140.674,140.674,141.73,139.368,141.73z M103.935,137.006h33.07V89.762h-33.07
			V137.006z"/>
		<path fill="#E9BD4C" d="M92.124,132.281H49.605c-1.304,0-2.362-1.056-2.362-2.362v-23.622c0-1.306,1.058-2.362,2.362-2.362h42.519
			c1.306,0,2.362,1.056,2.362,2.362v23.622C94.487,131.225,93.431,132.281,92.124,132.281z M51.968,127.557h37.795V108.66H51.968
			V127.557z"/>
		<rect x="73.227" y="94.487" fill="#E9BD4C" width="4.724" height="4.724"/>
		<rect x="63.778" y="94.487" fill="#E9BD4C" width="4.724" height="4.724"/>
		<rect x="54.33" y="94.487" fill="#E9BD4C" width="4.724" height="4.724"/>
		<rect x="82.676" y="94.487" fill="#E9BD4C" width="4.724" height="4.724"/>
		<rect x="2.362" y="103.935" fill="#E9BD4C" width="37.795" height="4.724"/>
		<rect x="16.535" y="94.487" fill="#E9BD4C" width="9.449" height="4.724"/>
		<rect x="16.535" y="113.384" fill="#E9BD4C" width="9.449" height="4.724"/>
		<rect x="101.573" y="103.935" fill="#E9BD4C" width="37.795" height="4.724"/>
		<rect x="118.108" y="106.298" fill="#E9BD4C" width="4.724" height="33.07"/>
		<rect x="115.746" y="94.487" fill="#E9BD4C" width="9.449" height="4.724"/>
		<rect x="108.66" y="118.108" fill="#E9BD4C" width="4.724" height="7.087"/>
		<rect x="127.557" y="118.108" fill="#E9BD4C" width="4.724" height="7.087"/>
		<path fill="#E9BD4C" d="M99.211,42.519H42.519c-0.954,0-1.817-0.576-2.183-1.457c-0.366-0.883-0.163-1.899,0.513-2.575
			l8.757-8.757V2.362C49.605,1.058,50.664,0,51.968,0h37.795c1.306,0,2.362,1.058,2.362,2.362V29.73l8.757,8.757
			c0.676,0.676,0.879,1.691,0.513,2.575C101.03,41.943,100.165,42.519,99.211,42.519z M48.221,37.795h45.287l-5.416-5.416
			c-0.444-0.442-0.692-1.044-0.692-1.67V4.724H54.33v25.984c0,0.626-0.248,1.228-0.692,1.67L48.221,37.795z"/>
		<path fill="#E9BD4C" d="M137.006,87.4h-4.724V61.416c0-2.605-2.119-4.724-4.724-4.724c-2.605,0-4.724,2.119-4.724,4.724v2.362
			h-4.724v-2.362c0-5.211,4.238-9.449,9.449-9.449s9.449,4.238,9.449,9.449V87.4z"/>
		<rect x="127.557" y="75.589" fill="#E9BD4C" width="7.087" height="4.724"/>
		<path fill="#E9BD4C" d="M68.503,89.762H44.881c-1.304,0-2.362-1.056-2.362-2.362V73.227c0-1.306,1.058-2.362,2.362-2.362h23.622
			c1.304,0,2.362,1.056,2.362,2.362V87.4C70.865,88.706,69.807,89.762,68.503,89.762z M47.243,85.038h18.897v-9.449H47.243V85.038z"
			/>
		<rect x="37.795" y="75.589" fill="#E9BD4C" width="7.087" height="4.724"/>
		<rect x="68.503" y="75.589" fill="#E9BD4C" width="7.087" height="4.724"/>
		<path fill="#E9BD4C" d="M40.157,33.07H2.362C1.058,33.07,0,32.012,0,30.708V2.362C0,1.058,1.058,0,2.362,0h37.795
			c1.304,0,2.362,1.058,2.362,2.362v28.346C42.519,32.012,41.461,33.07,40.157,33.07z M4.724,28.346h33.07V4.724H4.724V28.346z"/>
		<rect x="28.346" y="14.173" fill="#E9BD4C" width="4.724" height="9.449"/>
		<path fill="#E9BD4C" d="M139.368,33.07h-37.795c-1.306,0-2.362-1.058-2.362-2.362V2.362c0-1.304,1.056-2.362,2.362-2.362h37.795
			c1.306,0,2.362,1.058,2.362,2.362v28.346C141.73,32.012,140.674,33.07,139.368,33.07z M103.935,28.346h33.07V4.724h-33.07V28.346z
			"/>
		<rect x="108.66" y="14.173" fill="#E9BD4C" width="4.724" height="9.449"/>
		<rect y="47.243" fill="#E9BD4C" width="42.519" height="4.724"/>
		<rect x="4.724" y="42.519" fill="#E9BD4C" width="4.724" height="21.26"/>
		<path fill="#E9BD4C" d="M7.087,75.589C3.179,75.589,0,72.41,0,68.503c0-3.907,3.179-7.086,7.087-7.086s7.087,3.179,7.087,7.086
			C14.173,72.41,10.994,75.589,7.087,75.589z M7.087,66.141c-1.302,0-2.362,1.061-2.362,2.362c0,1.302,1.061,2.362,2.362,2.362
			s2.362-1.061,2.362-2.362C9.449,67.201,8.388,66.141,7.087,66.141z"/>
		<rect x="14.173" y="42.519" fill="#E9BD4C" width="4.724" height="21.26"/>
		<path fill="#E9BD4C" d="M16.535,75.589c-3.907,0-7.086-3.179-7.086-7.087c0-3.907,3.179-7.086,7.086-7.086
			s7.087,3.179,7.087,7.086C23.622,72.41,20.442,75.589,16.535,75.589z M16.535,66.141c-1.302,0-2.362,1.061-2.362,2.362
			c0,1.302,1.061,2.362,2.362,2.362c1.302,0,2.362-1.061,2.362-2.362C18.897,67.201,17.837,66.141,16.535,66.141z"/>
		<rect x="23.622" y="42.519" fill="#E9BD4C" width="4.724" height="21.26"/>
		<path fill="#E9BD4C" d="M25.984,75.589c-3.907,0-7.087-3.179-7.087-7.087c0-3.907,3.179-7.086,7.087-7.086
			s7.086,3.179,7.086,7.086C33.07,72.41,29.891,75.589,25.984,75.589z M25.984,66.141c-1.302,0-2.362,1.061-2.362,2.362
			c0,1.302,1.061,2.362,2.362,2.362s2.362-1.061,2.362-2.362C28.346,67.201,27.285,66.141,25.984,66.141z"/>
	</g>
</g>
</svg>
