<?xml version="1.0" encoding="utf-8"?>
<!-- Generator: Adobe Illustrator 17.0.0, SVG Export Plug-In . SVG Version: 6.00 Build 0)  -->
<!DOCTYPE svg PUBLIC "-//W3C//DTD SVG 1.1//EN" "http://www.w3.org/Graphics/SVG/1.1/DTD/svg11.dtd">
<svg version="1.1" id="Capa_1" xmlns="http://www.w3.org/2000/svg" xmlns:xlink="http://www.w3.org/1999/xlink" x="0px" y="0px"
	 width="141.73px" height="141.73px" viewBox="0 0 141.73 141.73" enable-background="new 0 0 141.73 141.73" xml:space="preserve">
<g>
	<g>
		<path fill="#E9BD4C" d="M127.667,60.153v-0.151V37.221c0-10.259-7.242-14.031-14.031-14.031H27.641
			c-6.789,0-14.031,3.621-14.031,14.031v22.781v0.151c-6.789,0.754-13.277,5.28-13.277,15.69v17.803
			c0,3.017,2.414,5.431,5.431,5.431h1.81v14.031c0,3.017,2.414,5.431,5.431,5.431h5.13c3.017,0,5.431-2.414,5.431-5.431V98.927
			h94.595v14.182c0,3.017,2.414,5.431,5.431,5.431h5.13c3.017,0,5.431-2.414,5.431-5.431V98.927h1.81
			c3.017,0,5.431-2.414,5.431-5.431V75.844C140.944,65.434,134.457,60.908,127.667,60.153z M19.041,37.221
			c0-7.091,4.677-8.6,8.6-8.6h85.996c3.923,0,8.6,1.509,8.6,8.6v22.781h-4.073V47.028c0-3.017-2.414-5.431-5.431-5.431H79.54
			c-3.017,0-5.431,2.414-5.431,5.431v12.975h-6.337V47.028c0-3.017-2.414-5.431-5.431-5.431H29.15c-3.017,0-5.431,2.414-5.431,5.431
			v12.975H18.74V37.221H19.041z M112.731,60.002H79.54V47.028h33.191V60.002z M62.643,60.002H29.451V47.028h33.191V60.002z
			 M16.024,65.434h2.867H29.3h33.191H79.54h33.191h9.505h2.867c3.923,0,10.41,1.358,10.41,10.41v4.375H5.614v-4.375
			C5.614,66.792,12.252,65.434,16.024,65.434z M17.985,113.109h-5.13V98.927h5.13V113.109z M128.422,113.109h-5.13V98.927h5.13
			V113.109z M128.422,93.646h-5.13H17.985h-5.13H5.614V85.65h129.899v7.996H128.422z"/>
	</g>
</g>
</svg>
