<?xml version="1.0" encoding="utf-8"?>
<!-- Generator: Adobe Illustrator 17.0.0, SVG Export Plug-In . SVG Version: 6.00 Build 0)  -->
<!DOCTYPE svg PUBLIC "-//W3C//DTD SVG 1.1//EN" "http://www.w3.org/Graphics/SVG/1.1/DTD/svg11.dtd">
<svg version="1.1" id="Capa_1" xmlns="http://www.w3.org/2000/svg" xmlns:xlink="http://www.w3.org/1999/xlink" x="0px" y="0px"
	 width="141.73px" height="141.73px" viewBox="0 0 141.73 141.73" enable-background="new 0 0 141.73 141.73" xml:space="preserve">
<g>
	<g>
		<path fill="#E9BD4C" d="M131.549,24.63c-4.78,0-8.669,3.889-8.669,8.669v37.566h-20.228c-4.78,0-8.669,3.889-8.669,8.669
			s3.889,8.669,8.669,8.669H117.1v23.118h-8.669c-1.597,0-2.89,1.292-2.89,2.89c0,1.597,1.292,2.89,2.89,2.89h23.118
			c1.597,0,2.89-1.292,2.89-2.89c0-1.597-1.292-2.89-2.89-2.89h-8.669V88.203h8.669c4.78,0,8.669-3.889,8.669-8.669V33.299
			C140.218,28.518,136.329,24.63,131.549,24.63z M134.439,79.534c0,1.594-1.295,2.89-2.89,2.89h-28.897
			c-1.594,0-2.89-1.295-2.89-2.89s1.295-2.89,2.89-2.89h23.118c1.597,0,2.89-1.292,2.89-2.89V33.299c0-1.594,1.295-2.89,2.89-2.89
			c1.594,0,2.89,1.295,2.89,2.89V79.534z"/>
		<path fill="#E9BD4C" d="M39.078,70.865H18.85V33.299c0-4.78-3.889-8.669-8.669-8.669s-8.669,3.889-8.669,8.669v46.235
			c0,4.78,3.889,8.669,8.669,8.669h8.669v23.118h-8.669c-1.597,0-2.89,1.292-2.89,2.89c0,1.597,1.292,2.89,2.89,2.89h23.118
			c1.597,0,2.89-1.292,2.89-2.89c0-1.597-1.292-2.89-2.89-2.89H24.63V88.203h14.449c4.78,0,8.669-3.889,8.669-8.669
			S43.859,70.865,39.078,70.865z M39.078,82.424H10.181c-1.594,0-2.89-1.295-2.89-2.89V33.299c0-1.594,1.295-2.89,2.89-2.89
			s2.89,1.295,2.89,2.89v40.456c0,1.597,1.292,2.89,2.89,2.89h23.118c1.594,0,2.89,1.295,2.89,2.89S40.673,82.424,39.078,82.424z"/>
		<path fill="#E9BD4C" d="M78.719,67.546c2.529,1.555,5.396,3.319,10.913,3.319s8.384-1.764,10.913-3.319
			c2.238-1.374,4.004-2.461,7.887-2.461c1.597,0,2.89-1.292,2.89-2.89v-8.669c0-6.375-5.184-11.559-11.559-11.559H41.968
			c-6.375,0-11.559,5.184-11.559,11.559v8.669c0,1.597,1.292,2.89,2.89,2.89c3.872,0,5.633,1.086,7.865,2.461
			c2.526,1.555,5.387,3.319,10.899,3.319c5.509,0,8.373-1.764,10.899-3.319c1.589-0.978,2.97-1.791,5.015-2.19v45.964H56.416
			c-1.597,0-2.89,1.292-2.89,2.89c0,1.597,1.292,2.89,2.89,2.89h28.897c1.597,0,2.89-1.292,2.89-2.89c0-1.597-1.292-2.89-2.89-2.89
			H73.755V65.373C75.767,65.776,77.143,66.579,78.719,67.546z M59.93,62.625c-2.232,1.374-3.996,2.461-7.868,2.461
			c-3.875,0-5.636-1.086-7.868-2.461c-2.04-1.259-4.304-2.65-8.006-3.138v-5.96c0-3.186,2.593-5.779,5.779-5.779h57.794
			c3.186,0,5.779,2.593,5.779,5.779v5.96c-3.711,0.485-5.977,1.879-8.023,3.138c-2.238,1.374-4.004,2.461-7.887,2.461
			s-5.65-1.086-7.887-2.461c-2.529-1.555-5.396-3.319-10.913-3.319C65.32,59.306,62.455,61.07,59.93,62.625z"/>
	</g>
</g>
</svg>
