<?xml version="1.0" encoding="utf-8"?>
<!-- Generator: Adobe Illustrator 17.0.0, SVG Export Plug-In . SVG Version: 6.00 Build 0)  -->
<!DOCTYPE svg PUBLIC "-//W3C//DTD SVG 1.1//EN" "http://www.w3.org/Graphics/SVG/1.1/DTD/svg11.dtd">
<svg version="1.1" id="Capa_1" xmlns="http://www.w3.org/2000/svg" xmlns:xlink="http://www.w3.org/1999/xlink" x="0px" y="0px"
	 width="141.73px" height="141.73px" viewBox="0 0 141.73 141.73" enable-background="new 0 0 141.73 141.73" xml:space="preserve">
<g transform="translate(1 1)">
	<g>
		<path fill="#E9BD4C" d="M137.177,139.498H2.553c-1.393,0-2.321-0.928-2.321-2.321c0-1.393,0.928-2.321,2.321-2.321h134.623
			c1.393,0,2.321,0.928,2.321,2.321C139.498,138.569,138.569,139.498,137.177,139.498z"/>
		<path fill="#E9BD4C" d="M76.828,111.645c-1.393,0-2.321-0.928-2.321-2.321v-4.642c0-1.393,0.928-2.321,2.321-2.321
			s2.321,0.928,2.321,2.321v4.642C79.149,110.716,78.221,111.645,76.828,111.645z M76.828,97.718c-1.393,0-2.321-0.928-2.321-2.321
			v-4.642c0-1.393,0.928-2.321,2.321-2.321s2.321,0.928,2.321,2.321v4.642C79.149,96.79,78.221,97.718,76.828,97.718z
			 M76.828,83.792c-1.393,0-2.321-0.928-2.321-2.321v-4.642c0-1.393,0.928-2.321,2.321-2.321s2.321,0.928,2.321,2.321v4.642
			C79.149,82.863,78.221,83.792,76.828,83.792z M76.828,69.865c-1.393,0-2.321-0.928-2.321-2.321v-4.642
			c0-1.393,0.928-2.321,2.321-2.321s2.321,0.928,2.321,2.321v4.642C79.149,68.937,78.221,69.865,76.828,69.865z M76.828,55.938
			c-1.393,0-2.321-0.928-2.321-2.321v-4.642c0-1.393,0.928-2.321,2.321-2.321s2.321,0.928,2.321,2.321v4.642
			C79.149,55.01,78.221,55.938,76.828,55.938z"/>
		<path fill="#E9BD4C" d="M90.755,121.161c-1.393,0-2.321-0.928-2.321-2.321v-0.232c0-1.393,0.928-2.321,2.321-2.321
			c1.393,0,2.321,0.928,2.321,2.321v0.232C93.076,120.233,92.147,121.161,90.755,121.161z M90.755,111.645
			c-1.393,0-2.321-0.928-2.321-2.321v-4.642c0-1.393,0.928-2.321,2.321-2.321c1.393,0,2.321,0.928,2.321,2.321v4.642
			C93.076,110.716,92.147,111.645,90.755,111.645z M90.755,97.718c-1.393,0-2.321-0.928-2.321-2.321v-4.642
			c0-1.393,0.928-2.321,2.321-2.321c1.393,0,2.321,0.928,2.321,2.321v4.642C93.076,96.79,92.147,97.718,90.755,97.718z
			 M90.755,83.792c-1.393,0-2.321-0.928-2.321-2.321v-4.642c0-1.393,0.928-2.321,2.321-2.321c1.393,0,2.321,0.928,2.321,2.321v4.642
			C93.076,82.863,92.147,83.792,90.755,83.792z M90.755,69.865c-1.393,0-2.321-0.928-2.321-2.321v-4.642
			c0-1.393,0.928-2.321,2.321-2.321c1.393,0,2.321,0.928,2.321,2.321v4.642C93.076,68.937,92.147,69.865,90.755,69.865z
			 M90.755,55.938c-1.393,0-2.321-0.928-2.321-2.321v-4.642c0-1.393,0.928-2.321,2.321-2.321c1.393,0,2.321,0.928,2.321,2.321v4.642
			C93.076,55.01,92.147,55.938,90.755,55.938z"/>
		<path fill="#E9BD4C" d="M104.681,122.786c-1.393,0-2.321-0.928-2.321-2.321v-1.857c0-1.393,0.928-2.321,2.321-2.321
			c1.393,0,2.321,0.928,2.321,2.321v1.857C107.002,121.857,106.074,122.786,104.681,122.786z M104.681,111.645
			c-1.393,0-2.321-0.928-2.321-2.321v-4.642c0-1.393,0.928-2.321,2.321-2.321c1.393,0,2.321,0.928,2.321,2.321v4.642
			C107.002,110.716,106.074,111.645,104.681,111.645z M104.681,97.718c-1.393,0-2.321-0.928-2.321-2.321v-4.642
			c0-1.393,0.928-2.321,2.321-2.321c1.393,0,2.321,0.928,2.321,2.321v4.642C107.002,96.79,106.074,97.718,104.681,97.718z
			 M104.681,83.792c-1.393,0-2.321-0.928-2.321-2.321v-4.642c0-1.393,0.928-2.321,2.321-2.321c1.393,0,2.321,0.928,2.321,2.321
			v4.642C107.002,82.863,106.074,83.792,104.681,83.792z M104.681,69.865c-1.393,0-2.321-0.928-2.321-2.321v-4.642
			c0-1.393,0.928-2.321,2.321-2.321c1.393,0,2.321,0.928,2.321,2.321v4.642C107.002,68.937,106.074,69.865,104.681,69.865z
			 M104.681,55.938c-1.393,0-2.321-0.928-2.321-2.321v-4.642c0-1.393,0.928-2.321,2.321-2.321c1.393,0,2.321,0.928,2.321,2.321
			v4.642C107.002,55.01,106.074,55.938,104.681,55.938z"/>
		<path fill="#E9BD4C" d="M25.764,130.213c-1.393,0-2.321-0.928-2.321-2.321v-4.642c0-1.393,0.928-2.321,2.321-2.321
			c1.393,0,2.321,0.928,2.321,2.321v4.642C28.085,129.285,27.157,130.213,25.764,130.213z M25.764,116.287
			c-1.393,0-2.321-0.928-2.321-2.321v-4.642c0-1.393,0.928-2.321,2.321-2.321c1.393,0,2.321,0.928,2.321,2.321v4.642
			C28.085,115.358,27.157,116.287,25.764,116.287z M25.764,102.36c-1.393,0-2.321-0.928-2.321-2.321v-4.642
			c0-1.393,0.928-2.321,2.321-2.321c1.393,0,2.321,0.928,2.321,2.321v4.642C28.085,101.432,27.157,102.36,25.764,102.36z
			 M25.764,88.434c-1.393,0-2.321-0.928-2.321-2.321V81.47c0-1.393,0.928-2.321,2.321-2.321c1.393,0,2.321,0.928,2.321,2.321v4.642
			C28.085,87.505,27.157,88.434,25.764,88.434z M25.764,74.507c-1.393,0-2.321-0.928-2.321-2.321v-4.642
			c0-1.393,0.928-2.321,2.321-2.321c1.393,0,2.321,0.928,2.321,2.321v4.642C28.085,73.579,27.157,74.507,25.764,74.507z
			 M25.764,60.581c-1.393,0-2.321-0.928-2.321-2.321v-4.642c0-1.393,0.928-2.321,2.321-2.321c1.393,0,2.321,0.928,2.321,2.321v4.642
			C28.085,59.652,27.157,60.581,25.764,60.581z M25.764,46.654c-1.393,0-2.321-0.928-2.321-2.321v-4.642
			c0-1.393,0.928-2.321,2.321-2.321c1.393,0,2.321,0.928,2.321,2.321v4.642C28.085,45.726,27.157,46.654,25.764,46.654z
			 M25.764,32.728c-1.393,0-2.321-0.928-2.321-2.321v-4.642c0-1.393,0.928-2.321,2.321-2.321c1.393,0,2.321,0.928,2.321,2.321v4.642
			C28.085,31.799,27.157,32.728,25.764,32.728z M25.764,18.801c-1.393,0-2.321-0.928-2.321-2.321v-4.642
			c0-1.393,0.928-2.321,2.321-2.321c1.393,0,2.321,0.928,2.321,2.321v4.642C28.085,17.873,27.157,18.801,25.764,18.801z"/>
		<path fill="#E9BD4C" d="M39.691,116.287c-1.393,0-2.321-0.928-2.321-2.321v-4.642c0-1.393,0.928-2.321,2.321-2.321
			s2.321,0.928,2.321,2.321v4.642C42.012,115.358,41.083,116.287,39.691,116.287z M39.691,102.36c-1.393,0-2.321-0.928-2.321-2.321
			v-4.642c0-1.393,0.928-2.321,2.321-2.321s2.321,0.928,2.321,2.321v4.642C42.012,101.432,41.083,102.36,39.691,102.36z
			 M39.691,88.434c-1.393,0-2.321-0.928-2.321-2.321V81.47c0-1.393,0.928-2.321,2.321-2.321s2.321,0.928,2.321,2.321v4.642
			C42.012,87.505,41.083,88.434,39.691,88.434z M39.691,74.507c-1.393,0-2.321-0.928-2.321-2.321v-4.642
			c0-1.393,0.928-2.321,2.321-2.321s2.321,0.928,2.321,2.321v4.642C42.012,73.579,41.083,74.507,39.691,74.507z M39.691,60.581
			c-1.393,0-2.321-0.928-2.321-2.321v-4.642c0-1.393,0.928-2.321,2.321-2.321s2.321,0.928,2.321,2.321v4.642
			C42.012,59.652,41.083,60.581,39.691,60.581z M39.691,46.654c-1.393,0-2.321-0.928-2.321-2.321v-4.642
			c0-1.393,0.928-2.321,2.321-2.321s2.321,0.928,2.321,2.321v4.642C42.012,45.726,41.083,46.654,39.691,46.654z M39.691,32.728
			c-1.393,0-2.321-0.928-2.321-2.321v-4.642c0-1.393,0.928-2.321,2.321-2.321s2.321,0.928,2.321,2.321v4.642
			C42.012,31.799,41.083,32.728,39.691,32.728z M39.691,18.801c-1.393,0-2.321-0.928-2.321-2.321v-4.642
			c0-1.393,0.928-2.321,2.321-2.321s2.321,0.928,2.321,2.321v4.642C42.012,17.873,41.083,18.801,39.691,18.801z"/>
		<path fill="#E9BD4C" d="M53.617,102.36c-1.393,0-2.321-0.928-2.321-2.321v-4.642c0-1.393,0.928-2.321,2.321-2.321
			c1.393,0,2.321,0.928,2.321,2.321v4.642C55.938,101.432,55.01,102.36,53.617,102.36z M53.617,88.434
			c-1.393,0-2.321-0.928-2.321-2.321V81.47c0-1.393,0.928-2.321,2.321-2.321c1.393,0,2.321,0.928,2.321,2.321v4.642
			C55.938,87.505,55.01,88.434,53.617,88.434z M53.617,74.507c-1.393,0-2.321-0.928-2.321-2.321v-4.642
			c0-1.393,0.928-2.321,2.321-2.321c1.393,0,2.321,0.928,2.321,2.321v4.642C55.938,73.579,55.01,74.507,53.617,74.507z
			 M53.617,60.581c-1.393,0-2.321-0.928-2.321-2.321v-4.642c0-1.393,0.928-2.321,2.321-2.321c1.393,0,2.321,0.928,2.321,2.321v4.642
			C55.938,59.652,55.01,60.581,53.617,60.581z M53.617,46.654c-1.393,0-2.321-0.928-2.321-2.321v-4.642
			c0-1.393,0.928-2.321,2.321-2.321c1.393,0,2.321,0.928,2.321,2.321v4.642C55.938,45.726,55.01,46.654,53.617,46.654z
			 M53.617,32.728c-1.393,0-2.321-0.928-2.321-2.321v-4.642c0-1.393,0.928-2.321,2.321-2.321c1.393,0,2.321,0.928,2.321,2.321v4.642
			C55.938,31.799,55.01,32.728,53.617,32.728z M53.617,18.801c-1.393,0-2.321-0.928-2.321-2.321v-4.642
			c0-1.393,0.928-2.321,2.321-2.321c1.393,0,2.321,0.928,2.321,2.321v4.642C55.938,17.873,55.01,18.801,53.617,18.801z"/>
		<path fill="#E9BD4C" d="M67.544,32.728c-1.393,0-2.321-0.928-2.321-2.321v-4.642c0-1.393,0.928-2.321,2.321-2.321
			s2.321,0.928,2.321,2.321v4.642C69.865,31.799,68.937,32.728,67.544,32.728z M67.544,18.801c-1.393,0-2.321-0.928-2.321-2.321
			v-4.642c0-1.393,0.928-2.321,2.321-2.321s2.321,0.928,2.321,2.321v4.642C69.865,17.873,68.937,18.801,67.544,18.801z"/>
		<path fill="#E9BD4C" d="M124.875,139.498H79.149c-0.696,0-1.393-0.232-1.857-0.928c-1.857-2.553-2.785-5.339-2.785-8.356
			c0-7.66,6.267-13.927,13.927-13.927c4.41,0,8.356,2.089,11.141,5.571c3.017-3.482,7.427-5.571,12.07-5.571
			c9.052,0,16.248,7.195,16.248,16.248c0,1.857-0.232,3.714-0.928,5.339C126.732,138.801,125.803,139.498,124.875,139.498z
			 M80.542,134.856h42.476c0.232-0.696,0.232-1.625,0.232-2.321c0-6.499-5.106-11.605-11.605-11.605
			c-4.41,0-8.356,2.321-10.213,6.267c-0.464,0.928-1.161,1.393-2.089,1.161c-0.928,0-1.625-0.696-2.089-1.393
			c-1.625-3.714-5.106-6.035-8.82-6.035c-5.106,0-9.284,4.178-9.284,9.284C79.149,131.838,79.614,133.463,80.542,134.856z"/>
		<path fill="#E9BD4C" d="M79.149,139.498H23.443c-1.393,0-2.321-0.928-2.321-2.321c0-8.124,6.035-15.087,14.159-16.016
			c1.161-7.892,7.892-14.159,16.016-14.159c6.499,0,12.302,3.946,14.855,9.749c2.321-1.857,5.339-2.785,8.356-2.785
			c3.946,0,7.427,1.625,10.213,4.41c0.464,0.464,0.696,1.161,0.696,1.857s-0.464,1.393-1.161,1.625
			c-3.017,1.625-4.874,4.642-4.874,8.124c0,1.857,0.696,3.946,1.857,5.571c0.464,0.696,0.696,1.625,0.232,2.553
			C81.006,139.034,80.078,139.498,79.149,139.498z M25.996,134.856h49.439c-0.464-1.393-0.928-3.017-0.928-4.642
			c0-3.946,1.625-7.66,4.642-10.445c-1.393-0.928-3.017-1.161-4.642-1.161c-3.017,0-5.803,1.393-7.66,3.946
			c-0.464,0.696-1.625,1.161-2.321,0.928c-0.928-0.232-1.625-0.928-1.857-1.857c-0.696-5.803-5.571-9.981-11.373-9.981
			c-6.499,0-11.605,5.106-11.605,11.605c0,1.393-0.928,2.321-2.321,2.321C31.799,125.571,27.157,129.517,25.996,134.856z"/>
		<path fill="#E9BD4C" d="M99.343,128.589C99.111,128.589,99.111,128.589,99.343,128.589c-1.161,0-1.857-0.696-2.089-1.393
			c-1.857-5.106-7.892-7.66-12.998-4.874c-0.928,0.464-2.089,0.232-2.785-0.464c-1.857-2.089-4.41-3.25-6.963-3.25
			c-3.017,0-5.571,1.393-7.427,3.714c-0.696,0.696-1.625,1.161-2.553,0.928c-0.928-0.464-1.625-1.161-1.625-2.321V39.691
			c0-1.393,0.928-2.321,2.321-2.321h51.064c1.393,0,2.321,0.928,2.321,2.321v79.613c0,0.696-0.464,1.393-0.928,1.857
			c-0.696,0.464-1.393,0.464-2.089,0.232c-5.571-1.857-11.605,0.464-14.159,5.571C100.968,127.892,100.039,128.589,99.343,128.589z
			 M88.434,116.287c4.41,0,8.356,2.089,11.141,5.571c3.482-3.946,9.052-6.035,14.391-5.339V42.012H67.544v73.811
			c2.089-1.161,4.41-1.857,6.963-1.857c3.25,0,6.499,1.161,9.052,3.25C84.952,116.519,86.809,116.287,88.434,116.287z"/>
		<path fill="#E9BD4C" d="M23.443,139.498H16.48c-1.393,0-2.321-0.928-2.321-2.321V2.553c0-1.393,0.928-2.321,2.321-2.321h62.669
			c1.393,0,2.321,0.928,2.321,2.321v37.137c0,1.393-0.928,2.321-2.321,2.321H67.544v78.917c0,0.464-0.232,0.928-0.464,1.393
			l-0.232,0.232c-0.464,0.696-1.393,1.161-2.321,0.928c-0.928-0.232-1.625-0.928-1.625-1.857c-0.928-5.803-5.803-9.981-11.605-9.981
			c-6.499,0-11.605,5.106-11.605,11.605c0,1.393-0.928,2.321-2.321,2.321c-6.499,0-11.605,5.106-11.605,11.605
			C25.764,138.569,24.836,139.498,23.443,139.498z M18.801,134.856h2.553c0.928-7.195,6.731-12.766,13.927-13.694
			c1.161-7.892,7.892-14.159,16.016-14.159c4.41,0,8.588,1.857,11.605,4.874V39.691c0-1.393,0.928-2.321,2.321-2.321h11.605V4.874
			H18.801V134.856z"/>
	</g>
</g>
</svg>
