<?xml version="1.0" encoding="utf-8"?>
<!-- Generator: Adobe Illustrator 17.0.0, SVG Export Plug-In . SVG Version: 6.00 Build 0)  -->
<!DOCTYPE svg PUBLIC "-//W3C//DTD SVG 1.1//EN" "http://www.w3.org/Graphics/SVG/1.1/DTD/svg11.dtd">
<svg version="1.1" id="Capa_1" xmlns="http://www.w3.org/2000/svg" xmlns:xlink="http://www.w3.org/1999/xlink" x="0px" y="0px"
	 width="141.73px" height="141.73px" viewBox="0 0 141.73 141.73" enable-background="new 0 0 141.73 141.73" xml:space="preserve">
<path fill="#E9BD4C" d="M134.923,43.561L74.588,4.429c-2.265-1.47-5.181-1.47-7.446,0L6.81,43.561
	c-3.172,2.058-4.074,6.294-2.018,9.463c2.058,3.172,6.294,4.074,9.463,2.018l3.784-2.452v78.95c0,3.78,3.062,6.842,6.842,6.842
	v0.021h62.46c2.036,0,3.686-1.648,3.686-3.684v-22.311c0-2.036-1.651-3.686-3.686-3.686H67.724V83.38
	c0-2.034-1.651-3.684-3.686-3.684H48.96V54.365c0-2.036-1.65-3.686-3.686-3.686H31.724v-6.967l39.14-25.386l39.145,25.386v87.828
	c0,3.78,3.062,6.842,6.842,6.842c3.777,0,6.842-3.062,6.842-6.842V52.588l3.782,2.454c1.149,0.746,2.441,1.103,3.717,1.103
	c2.241,0,4.437-1.1,5.746-3.121C138.994,49.855,138.092,45.618,134.923,43.561L134.923,43.561z M134.923,43.561"/>
</svg>
