<?xml version="1.0" encoding="utf-8"?>
<!-- Generator: Adobe Illustrator 17.0.0, SVG Export Plug-In . SVG Version: 6.00 Build 0)  -->
<!DOCTYPE svg PUBLIC "-//W3C//DTD SVG 1.1//EN" "http://www.w3.org/Graphics/SVG/1.1/DTD/svg11.dtd">
<svg version="1.1" id="Capa_1" xmlns="http://www.w3.org/2000/svg" xmlns:xlink="http://www.w3.org/1999/xlink" x="0px" y="0px"
	 width="141.73px" height="141.73px" viewBox="0 0 141.73 141.73" enable-background="new 0 0 141.73 141.73" xml:space="preserve">
<g>
	<g>
		<g>
			<path fill="#E9BD4C" d="M101.013,4.017H41.608c-4.354,0-7.844,3.953-7.844,8.845v116.003c0,4.881,3.491,8.849,7.844,8.849h59.405
				c4.357,0,7.875-3.968,7.875-8.849V12.862C108.887,7.97,105.37,4.017,101.013,4.017L101.013,4.017z M102.257,126.437
				c0,2.569-1.807,4.654-4.136,4.654H45.327c-2.329,0-4.258-2.085-4.258-4.654V15.065c0-2.569,1.929-4.685,4.258-4.685H98.12
				c2.329,0,4.136,2.116,4.136,4.685V126.437z M101.059,125.718"/>
			<path fill="#E9BD4C" d="M84.87,53.573c-0.34-3.697-3.46-6.519-7.187-6.519h-12.74c-3.731,0-6.832,2.822-7.191,6.519
				l-2.299,24.839c-0.042,0.611,0.164,1.211,0.584,1.657c0.416,0.447,0.997,0.699,1.608,0.699h4.357l0.076,40.146
				c0,1.222,1.073,2.15,2.295,2.15h3.701c1.237,0,2.207-0.928,2.207-2.15V87.588c0-0.569,0.508-0.928,1.058-0.928
				c0.569,0,1.016,0.359,1.016,0.928v33.325c0,1.222,0.955,2.15,2.192,2.15h3.685c1.222,0,2.268-0.928,2.268-2.15V80.768h4.476
				c0.596,0,1.192-0.252,1.596-0.699c0.432-0.447,0.642-1.031,0.596-1.642L84.87,53.573z M84.87,53.573"/>
			<path fill="#E9BD4C" d="M80.455,34.764c0,5.041-4.102,9.143-9.143,9.143c-5.045,0-9.147-4.102-9.147-9.143
				c0-5.06,4.102-9.147,9.147-9.147C76.353,25.617,80.455,29.704,80.455,34.764L80.455,34.764z M80.455,34.764"/>
		</g>
		<g>
			<path fill="#E9BD4C" d="M138.362,65.462l-8.163-8.163c-0.941-0.941-2.467-0.941-3.408,0l-8.163,8.163
				c-0.779,0.779-0.931,1.976-0.377,2.928c0.553,0.952,1.688,1.402,2.745,1.106l3.633-1.015v13.712c0,1.329,1.056,2.414,2.396,2.414
				h2.938c1.342,0,2.378-1.085,2.378-2.414V68.481l3.644,1.015c1.056,0.296,2.192-0.165,2.745-1.106
				C139.282,67.438,139.138,66.24,138.362,65.462L138.362,65.462z M138.362,65.462"/>
			<path fill="#E9BD4C" d="M20.772,71.871l-3.594,1.014V57.647c0-1.332-1.127-2.375-2.456-2.375h-2.949
				c-1.342,0-2.406,1.043-2.406,2.375v15.238l-3.636-1.014c-1.054-0.296-2.181,0.165-2.734,1.106
				c-0.553,0.952-0.399,2.149,0.38,2.928l8.16,8.16c0.941,0.954,2.467,0.954,3.421,0l8.16-8.16c0.779-0.779,0.941-1.976,0.377-2.928
				C22.943,72.036,21.829,71.575,20.772,71.871L20.772,71.871z M20.772,71.871"/>
		</g>
	</g>
</g>
</svg>
