<?xml version="1.0" encoding="utf-8"?>
<!-- Generator: Adobe Illustrator 17.0.0, SVG Export Plug-In . SVG Version: 6.00 Build 0)  -->
<!DOCTYPE svg PUBLIC "-//W3C//DTD SVG 1.1//EN" "http://www.w3.org/Graphics/SVG/1.1/DTD/svg11.dtd">
<svg version="1.1" id="Capa_1" xmlns="http://www.w3.org/2000/svg" xmlns:xlink="http://www.w3.org/1999/xlink" x="0px" y="0px"
	 width="115.395px" height="98.664px" viewBox="0 0 115.395 98.664" enable-background="new 0 0 115.395 98.664"
	 xml:space="preserve">
<g>
	<path fill="#E9BD4C" d="M97.469,57.273c-0.262-0.129-0.524-0.195-0.785-0.195c-0.563,0-1.063,0.215-1.496,0.652l-4.172,4.168
		c-0.391,0.395-0.586,0.871-0.586,1.434v16.554c0,2.871-1.02,5.325-3.063,7.367c-2.043,2.043-4.5,3.063-7.367,3.063H25.77
		c-2.868,0-5.321-1.02-7.364-3.063c-2.043-2.042-3.062-4.496-3.062-7.367V25.66c0-2.867,1.019-5.324,3.062-7.364
		c2.043-2.043,4.496-3.066,7.364-3.066H80c0.957,0,1.934,0.133,2.934,0.395c0.261,0.086,0.457,0.128,0.586,0.128
		c0.566,0,1.066-0.218,1.5-0.652l3.191-3.191c0.523-0.524,0.719-1.153,0.586-1.891c-0.129-0.695-0.52-1.195-1.172-1.5
		C85.277,7.433,82.738,6.89,80,6.89H25.77c-5.168,0-9.59,1.836-13.262,5.508C8.836,16.07,7,20.492,7,25.664V79.89
		c0,5.172,1.836,9.594,5.508,13.266c3.672,3.672,8.094,5.508,13.262,5.508H80c5.172,0,9.594-1.836,13.266-5.508
		c3.672-3.672,5.507-8.094,5.507-13.266V59.164C98.773,58.25,98.336,57.621,97.469,57.273L97.469,57.273z M97.469,57.273"/>
	<path fill="#E9BD4C" d="M113.828,19.859l-7.168-7.168c-1.043-1.043-2.285-1.566-3.719-1.566c-1.433,0-2.671,0.523-3.714,1.566
		L57.055,54.863L39.914,37.718c-1.043-1.043-2.281-1.562-3.715-1.562c-1.433,0-2.672,0.519-3.715,1.562l-7.168,7.172
		c-1.043,1.043-1.566,2.281-1.566,3.715c0,1.434,0.523,2.672,1.566,3.715L53.34,80.347c1.047,1.043,2.285,1.563,3.719,1.563
		c1.433,0,2.671-0.52,3.714-1.563l53.055-53.054c1.043-1.043,1.567-2.282,1.567-3.715C115.395,22.144,114.871,20.902,113.828,19.859
		L113.828,19.859z M113.828,19.859"/>
</g>
</svg>
