<?xml version="1.0" encoding="utf-8"?>
<!-- Generator: Adobe Illustrator 17.0.0, SVG Export Plug-In . SVG Version: 6.00 Build 0)  -->
<!DOCTYPE svg PUBLIC "-//W3C//DTD SVG 1.1//EN" "http://www.w3.org/Graphics/SVG/1.1/DTD/svg11.dtd">
<svg version="1.1" id="Capa_1" xmlns="http://www.w3.org/2000/svg" xmlns:xlink="http://www.w3.org/1999/xlink" x="0px" y="0px"
	 width="141.73px" height="141.73px" viewBox="0 0 141.73 141.73" enable-background="new 0 0 141.73 141.73" xml:space="preserve">
<g>
	<g>
		<path fill="#83BEE9" d="M118.779,29.389c3.742,0,7.259-1.649,9.645-4.513l10.382-12.408c0.754-0.895,1.109-2.026,1.002-3.191
			c-0.107-1.159-0.658-2.206-1.531-2.932c-1.767-1.497-4.626-1.26-6.15,0.54l-10.371,12.397c-0.743,0.883-1.829,1.39-2.977,1.39
			H94.701c-2.403,0-4.355,1.953-4.355,4.355s1.953,4.361,4.355,4.361h11.434L92.511,74.3L61.157,61.189
			c-1.193-0.613-3.697-1.581-7.647-2.966l-1.238,2.622l0,0l1.176-2.611l-0.563-0.208c-3.236-0.843-6.583-1.266-9.953-1.294
			L38.143,45.81h8.935c5.014,0,9.093-4.018,9.093-8.958v-4.04c0-4.941-4.08-8.964-9.093-8.964H14.553
			c-4.929,0-8.79,3.939-8.79,8.964v4.04c0,5.025,3.86,8.958,8.79,8.958h14.072l5.207,11.87C15.598,61.688,1.903,77.918,1.903,97.304
			c0,10.793,4.265,20.742,12.003,28.029c0.873,0.819,1.788,1.585,2.726,2.318H9.196c-2.397,0-4.35,1.958-4.35,4.361
			c0,2.403,1.953,4.355,4.35,4.355h124.512c2.403,0,4.355-1.953,4.355-4.355c0-2.403-1.953-4.361-4.355-4.361h-7.892
			c4.503-4.838,7.318-11.266,7.318-18.373c0-11.35-7.175-21.58-17.72-25.401l-14.82-6.197l14.642-48.291H118.779z M42.582,127.651
			c-17.928,0-31.973-13.331-31.973-30.347c0-17.585,14.344-31.889,31.973-31.889c2.74,0,5.447,0.343,7.85,0.962
			c2.183,0.743,5.858,2.093,7.124,2.729l54.73,22.897c7.265,2.634,12.149,9.572,12.149,17.275c0,10.129-8.272,18.373-18.435,18.373
			H42.582z M14.519,32.563c0,0,0.011-0.006,0.034-0.006l32.908,0.253l-0.383,4.294l-32.604-0.253L14.519,32.563z"/>
		<path fill="#83BEE9" d="M66.796,115.057h-6.638l-4.627-8.396c2.428-2.69,3.95-6.212,3.95-10.112
			c0-8.368-6.814-15.171-15.193-15.171S29.088,88.182,29.088,96.55s6.82,15.171,15.199,15.171c1.315,0,2.57-0.219,3.788-0.535
			l2.139,3.871h-3.536c-2.397,0-4.35,1.953-4.35,4.355s1.953,4.361,4.35,4.361h20.117c2.403,0,4.361-1.958,4.361-4.361
			S69.198,115.057,66.796,115.057z M44.287,90.09c3.573,0,6.482,2.898,6.482,6.46c0,3.556-2.909,6.454-6.482,6.454
			s-6.482-2.898-6.482-6.454C37.805,92.988,40.714,90.09,44.287,90.09z"/>
	</g>
</g>
</svg>
