<?xml version="1.0" encoding="utf-8"?>
<!-- Generator: Adobe Illustrator 17.0.0, SVG Export Plug-In . SVG Version: 6.00 Build 0)  -->
<!DOCTYPE svg PUBLIC "-//W3C//DTD SVG 1.1//EN" "http://www.w3.org/Graphics/SVG/1.1/DTD/svg11.dtd">
<svg version="1.1" id="Capa_1" xmlns="http://www.w3.org/2000/svg" xmlns:xlink="http://www.w3.org/1999/xlink" x="0px" y="0px"
	 width="141.73px" height="141.73px" viewBox="0 0 141.73 141.73" enable-background="new 0 0 141.73 141.73" xml:space="preserve">
<path fill="#83BEE9" d="M126.425,112.404v-2.221c0-6.748-5.49-12.238-12.238-12.238c-3.805,0-7.372-1.482-10.056-4.17L74.083,63.743
	l-0.189,0.374c-2.514-1.675-5.368-2.743-8.375-3.157V49.513h6.884L39.697,27.707v-7.002h-5.974v7.001L1.001,49.513h7.104v65.877
	h0.229v3.092h5.516v-3.092h0.229V83.943h11.037v31.447h5.974v-5.974h11.239v5.974h5.974V83.943h11.243v31.447h0.229v2.987h5.516
	v-2.987h0.229V84.276c2.655,0.569,5.105,1.876,7.078,3.846l24.343,24.343c3.823,3.809,8.894,5.908,14.287,5.908v0.004h28.733v-5.974
	H126.425z M53.809,66.73h5.736v11.239h-5.552L53.809,66.73z M36.711,32.903l15.95,10.636H20.751L36.711,32.903z M59.545,49.513
	v11.243h-5.736c-3.167,0-5.741,2.573-5.741,5.741v11.472H25.564V66.497c0-3.167-2.578-5.741-5.745-5.741h-5.741V49.513H59.545z
	 M14.078,66.649l5.512-0.152v11.472h-5.512V66.649z M31.089,103.443V92.908h11.239v10.535H31.089z M42.328,86.934H31.089v-2.991
	h11.239V86.934z M101.167,108.238l-29.446-29.45v1.386c-1.938-0.993-4.031-1.639-6.202-1.96v-11.21
	c2.734,0.542,5.251,1.881,7.271,3.897l27.115,27.093c3.805,3.823,8.877,5.925,14.283,5.925c3.453,0,6.264,2.811,6.264,6.264v2.217
	h-9.224C107.431,112.399,103.855,110.917,101.167,108.238z"/>
</svg>
