<?xml version="1.0" encoding="utf-8"?>
<!-- Generator: Adobe Illustrator 17.0.0, SVG Export Plug-In . SVG Version: 6.00 Build 0)  -->
<!DOCTYPE svg PUBLIC "-//W3C//DTD SVG 1.1//EN" "http://www.w3.org/Graphics/SVG/1.1/DTD/svg11.dtd">
<svg version="1.1" id="Capa_1" xmlns="http://www.w3.org/2000/svg" xmlns:xlink="http://www.w3.org/1999/xlink" x="0px" y="0px"
	 width="141.73px" height="141.73px" viewBox="0 0 141.73 141.73" enable-background="new 0 0 141.73 141.73" xml:space="preserve">
<g>
	<g>
		<path fill="#83BEE9" d="M16.834,119.212c-3.491,0-6.433-2.617-6.838-6.104L6.477,83.212c-0.037-0.281-0.053-0.587-0.051-0.895
			c0.032-3.793,3.121-6.852,6.9-6.852c0.044,0,0.087,0,0.129,0c3.363,0,6.291,2.525,6.785,5.9l3.721,24.006l21.034,0.041
			c3.8,0,6.896,3.096,6.896,6.9s-3.096,6.9-6.9,6.9H16.883C16.867,119.212,16.85,119.212,16.834,119.212z M13.368,80.065
			c-1.302,0-2.332,1.019-2.341,2.282c0,0.097,0.005,0.2,0.016,0.301l3.521,29.924c0.136,1.168,1.116,2.04,2.284,2.04
			c0.005,0,0.012,0,0.016,0h28.125c1.267,0,2.3-1.03,2.3-2.3c0-1.27-1.033-2.3-2.3-2.3l-23.005-0.046
			c-1.132-0.002-2.095-0.828-2.268-1.948L15.691,82.05c-0.168-1.143-1.143-1.985-2.279-1.985
			C13.398,80.063,13.384,80.065,13.368,80.065z"/>
		
			<rect x="5.32" y="124.927" transform="matrix(-0.3164 0.9486 -0.9486 -0.3164 142.0561 152.086)" fill="#83BEE9" width="21.82" height="4.6"/>
		
			<rect x="41.537" y="116.311" transform="matrix(-0.9487 0.3162 -0.3162 -0.9487 125.6512 234.0535)" fill="#83BEE9" width="4.6" height="21.821"/>
		<path fill="#83BEE9" d="M103.066,98.466H38.664c-1.27,0-2.3-1.028-2.3-2.3v-9.2c0-1.272,1.03-2.3,2.3-2.3h64.402
			c1.272,0,2.3,1.028,2.3,2.3v9.2C105.366,97.438,104.338,98.466,103.066,98.466z M40.964,93.866h59.801v-4.6H40.964V93.866z"/>
		<path fill="#83BEE9" d="M75.465,139.867h-9.2c-1.27,0-2.3-1.028-2.3-2.3V96.166c0-1.272,1.03-2.3,2.3-2.3h9.2
			c1.272,0,2.3,1.028,2.3,2.3v41.401C77.765,138.839,76.737,139.867,75.465,139.867z M68.565,135.267h4.6V98.466h-4.6V135.267z"/>
		<path fill="#83BEE9" d="M135.267,24.864H6.463c-0.708,0-1.378-0.327-1.812-0.886c-0.435-0.559-0.591-1.286-0.419-1.973l4.6-18.4
			c0.255-1.021,1.175-1.741,2.231-1.741h119.603c1.056,0,1.973,0.72,2.231,1.741l4.6,18.4c0.173,0.688,0.018,1.415-0.419,1.973
			C136.642,24.537,135.975,24.864,135.267,24.864z M9.41,20.264h122.91l-3.45-13.8H12.86L9.41,20.264z"/>
		<path fill="#83BEE9" d="M70.865,40.964c-6.341,0-11.5-5.159-11.5-11.5v-6.9c0-1.27,1.03-2.3,2.3-2.3h18.4
			c1.272,0,2.3,1.03,2.3,2.3v6.9C82.365,35.805,77.206,40.964,70.865,40.964z M63.965,24.864v4.6c0,3.804,3.096,6.9,6.9,6.9
			s6.9-3.096,6.9-6.9v-4.6H63.965z"/>
		<path fill="#83BEE9" d="M52.465,40.964c-6.341,0-11.5-5.159-11.5-11.5v-6.9c0-1.27,1.03-2.3,2.3-2.3h18.4c1.27,0,2.3,1.03,2.3,2.3
			v6.9C63.965,35.805,58.806,40.964,52.465,40.964z M45.564,24.864v4.6c0,3.804,3.096,6.9,6.9,6.9s6.9-3.096,6.9-6.9v-4.6H45.564z"
			/>
		<path fill="#83BEE9" d="M34.064,40.964c-6.341,0-11.5-5.159-11.5-11.5v-6.9c0-1.27,1.03-2.3,2.3-2.3h18.4c1.27,0,2.3,1.03,2.3,2.3
			v6.9C45.564,35.805,40.405,40.964,34.064,40.964z M27.164,24.864v4.6c0,3.804,3.096,6.9,6.9,6.9s6.9-3.096,6.9-6.9v-4.6H27.164z"
			/>
		<path fill="#83BEE9" d="M15.664,40.964c-6.341,0-11.5-5.159-11.5-11.5v-6.9c0-1.27,1.03-2.3,2.3-2.3h18.4c1.27,0,2.3,1.03,2.3,2.3
			v6.9C27.164,35.805,22.005,40.964,15.664,40.964z M8.763,24.864v4.6c0,3.804,3.096,6.9,6.9,6.9s6.9-3.096,6.9-6.9v-4.6H8.763z"/>
		<path fill="#83BEE9" d="M89.265,40.964c-6.341,0-11.5-5.159-11.5-11.5v-6.9c0-1.27,1.028-2.3,2.3-2.3h18.4
			c1.272,0,2.3,1.03,2.3,2.3v6.9C100.766,35.805,95.607,40.964,89.265,40.964z M82.365,24.864v4.6c0,3.804,3.096,6.9,6.9,6.9
			s6.9-3.096,6.9-6.9v-4.6H82.365z"/>
		<path fill="#83BEE9" d="M107.666,40.964c-6.341,0-11.5-5.159-11.5-11.5v-6.9c0-1.27,1.028-2.3,2.3-2.3h18.4
			c1.272,0,2.3,1.03,2.3,2.3v6.9C119.166,35.805,114.007,40.964,107.666,40.964z M100.766,24.864v4.6c0,3.804,3.096,6.9,6.9,6.9
			c3.804,0,6.9-3.096,6.9-6.9v-4.6H100.766z"/>
		<path fill="#83BEE9" d="M126.066,40.964c-6.341,0-11.5-5.159-11.5-11.5v-6.9c0-1.27,1.028-2.3,2.3-2.3h18.4
			c1.272,0,2.3,1.03,2.3,2.3v6.9C137.567,35.805,132.408,40.964,126.066,40.964z M119.166,24.864v4.6c0,3.804,3.096,6.9,6.9,6.9
			s6.9-3.096,6.9-6.9v-4.6H119.166z"/>
		<rect x="59.365" y="4.163" fill="#83BEE9" width="4.6" height="18.4"/>
		<rect x="77.765" y="4.163" fill="#83BEE9" width="4.6" height="18.4"/>
		<rect x="40.964" y="4.163" fill="#83BEE9" width="4.6" height="18.4"/>
		<rect x="96.166" y="4.163" fill="#83BEE9" width="4.6" height="18.4"/>
		
			<rect x="16.743" y="11.065" transform="matrix(-0.124 0.9923 -0.9923 -0.124 42.5004 -10.7889)" fill="#83BEE9" width="18.539" height="4.6"/>
		
			<rect x="113.418" y="4.095" transform="matrix(-0.9923 0.124 -0.124 -0.9923 232.1997 12.2776)" fill="#83BEE9" width="4.6" height="18.539"/>
		<path fill="#83BEE9" d="M124.877,119.212c-0.016,0-0.032,0-0.048,0H96.741c-3.804,0-6.9-3.096-6.9-6.9s3.096-6.9,6.9-6.9
			l21.029-0.041l3.724-24.024c0.495-3.358,3.42-5.881,6.824-5.881c0.044,0,0.081,0,0.131,0c3.735,0,6.827,3.059,6.854,6.847
			c0.002,0.299-0.016,0.605-0.053,0.909l-3.517,29.892C131.329,116.595,128.387,119.212,124.877,119.212z M128.36,80.065
			c-1.178,0-2.153,0.842-2.318,1.967l-4.027,25.986c-0.173,1.118-1.136,1.946-2.268,1.948l-23.001,0.046
			c-1.274,0-2.305,1.03-2.305,2.3c0,1.27,1.03,2.3,2.3,2.3h28.107c0.005,0,0.012,0,0.016,0c1.185,0,2.164-0.872,2.3-2.036
			l3.519-29.905c0.014-0.11,0.023-0.214,0.021-0.317c-0.009-1.27-1.04-2.289-2.3-2.289C128.392,80.065,128.373,80.065,128.36,80.065
			z"/>
		
			<rect x="123.191" y="116.313" transform="matrix(-0.9487 0.3162 -0.3162 -0.9487 284.7683 208.2398)" fill="#83BEE9" width="4.598" height="21.821"/>
		
			<rect x="86.988" y="124.905" transform="matrix(-0.3165 0.9486 -0.9486 -0.3165 249.5476 74.5987)" fill="#83BEE9" width="21.821" height="4.598"/>
		<rect x="1.863" y="135.267" fill="#83BEE9" width="138.003" height="4.6"/>
	</g>
</g>
</svg>
