<?xml version="1.0" encoding="utf-8"?>
<!-- Generator: Adobe Illustrator 17.0.0, SVG Export Plug-In . SVG Version: 6.00 Build 0)  -->
<!DOCTYPE svg PUBLIC "-//W3C//DTD SVG 1.1//EN" "http://www.w3.org/Graphics/SVG/1.1/DTD/svg11.dtd">
<svg version="1.1" id="Capa_1" xmlns="http://www.w3.org/2000/svg" xmlns:xlink="http://www.w3.org/1999/xlink" x="0px" y="0px"
	 width="141.73px" height="141.73px" viewBox="0 0 141.73 141.73" enable-background="new 0 0 141.73 141.73" xml:space="preserve">
<path fill="#83BEE9" d="M122.294,48.266v-5.454h16.36c1.292,0,2.338-1.046,2.338-2.338s-1.046-2.338-2.338-2.338h-21.035v-7.013
	c0-1.292-1.046-2.338-2.338-2.338s-2.338,1.046-2.338,2.338v7.013H94.242v-7.013c0-1.292-1.046-2.338-2.338-2.338
	s-2.338,1.046-2.338,2.338v7.013H66.19v-7.013c0-1.292-1.046-2.338-2.338-2.338c-1.292,0-2.338,1.046-2.338,2.338v7.013H33.462
	v-7.013c0-1.292-1.046-2.338-2.338-2.338s-2.338,1.046-2.338,2.338v7.013H3.076c-1.292,0-2.338,1.046-2.338,2.338
	s1.046,2.338,2.338,2.338H21.44l-5.354,2.568c-1.112,0.532-1.619,1.838-1.157,2.981l6.399,15.855
	c0.466,1.155,1.753,1.746,2.934,1.336l2.324-0.804c0.256,3.025,0.829,5.493,1.315,7.579c0.475,2.05,0.886,3.822,0.886,5.55
	c0,3.561-3.342,21.128-4.63,27.596c-0.18,0.906,0.189,1.835,0.947,2.367c0.294,0.21,7.419,5.102,22.384,5.102
	s22.089-4.892,22.384-5.102c0.758-0.532,1.128-1.461,0.947-2.367c-1.288-6.467-4.63-24.035-4.63-27.596
	c0-1.728,0.411-3.5,0.886-5.55c0.486-2.087,1.059-4.554,1.315-7.579l2.324,0.804c1.183,0.411,2.468-0.18,2.934-1.336l6.399-15.855
	c0.461-1.144-0.046-2.45-1.157-2.981l-5.354-2.568h11.356V48.2c0,5.353-1.164,8.741-4.018,11.689
	c-0.422,0.436-0.657,1.018-0.657,1.625v44.416c0,0.886,0.5,1.694,1.292,2.091c0.402,0.201,9.983,4.922,22.085,4.922
	s21.683-4.721,22.085-4.922c0.792-0.397,1.292-1.205,1.292-2.091V61.514c0-0.607-0.235-1.189-0.657-1.625
	C122.977,56.444,122.294,52.752,122.294,48.266z M98.778,42.813h9.627c0.029,2.546-0.308,6.289-1.97,8.166
	c-1.425,1.616-4.246,1.623-5.682,0.002C99.078,49.095,98.741,45.383,98.778,42.813z M56.786,42.813
	c-2.288,4.796-5.227,7.013-9.298,7.013s-7.009-2.217-9.298-7.013H56.786z M70.144,60.407l-3.189-1.103
	c-0.717-0.247-1.504-0.137-2.121,0.306c-0.616,0.438-0.982,1.148-0.982,1.904c0,4.027-0.705,7.072-1.331,9.757
	c-0.518,2.235-1.007,4.342-1.007,6.607c0,4.1,3.269,21.119,4.392,26.845c-2.463,1.212-8.497,3.545-18.419,3.545
	c-9.928,0-15.962-2.338-18.419-3.545c1.123-5.723,4.392-22.745,4.392-26.845c0-2.265-0.489-4.372-1.007-6.607
	c-0.626-2.685-1.331-5.73-1.331-9.757c0-0.756-0.365-1.466-0.982-1.904c-0.619-0.438-1.409-0.552-2.121-0.306l-3.189,1.103
	l-4.746-11.759l10.323-4.954c0.826-0.436,1.735-0.717,2.666-0.829c1.605,4.13,5.422,11.636,14.412,11.636S60.295,46.997,61.9,42.867
	c0.936,0.112,1.861,0.4,2.746,0.865l10.243,4.915L70.144,60.407z M122.294,104.415c-2.867,1.199-10.177,3.854-18.702,3.854
	s-15.834-2.655-18.702-3.854V62.427c4.102-4.669,4.675-9.791,4.675-14.227v-5.388h4.529c-0.043,3.089,0.37,8.118,3.153,11.264
	c3.201,3.616,9.488,3.616,12.688,0c2.783-3.146,3.196-8.175,3.153-11.264h4.529v5.454c0,4.406,0.573,9.497,4.675,14.161V104.415z"/>
</svg>
