<?xml version="1.0" encoding="utf-8"?>
<!-- Generator: Adobe Illustrator 17.0.0, SVG Export Plug-In . SVG Version: 6.00 Build 0)  -->
<!DOCTYPE svg PUBLIC "-//W3C//DTD SVG 1.1//EN" "http://www.w3.org/Graphics/SVG/1.1/DTD/svg11.dtd">
<svg version="1.1" id="Capa_1" xmlns="http://www.w3.org/2000/svg" xmlns:xlink="http://www.w3.org/1999/xlink" x="0px" y="0px"
	 width="141.73px" height="141.73px" viewBox="0 0 141.73 141.73" enable-background="new 0 0 141.73 141.73" xml:space="preserve">
<g>
	<g>
		<path fill="#83BEE9" d="M140.685,81.649V56.898h-2.967c-9.056,0-17.272,3.558-23.407,9.306h-3.875v-2.33h2.316
			c1.286,0,2.33-1.033,2.33-2.316c0-1.297-1.044-2.33-2.33-2.33H89.478c-1.283,0-2.316,1.033-2.316,2.33
			c0,1.283,1.033,2.316,2.316,2.316h2.33v2.33H80.91c1.001-2.068,1.591-5.021,1.591-9.306c0-4.375-0.591-5.853-1.635-8.09
			c-0.273-0.579-0.582-1.239-0.911-2.08l-0.591-1.466h-6.17v-6.022l3.965-3.968c0.911-0.908,0.911-2.386,0-3.293
			c-0.908-0.911-2.374-0.911-3.284,0l-0.681,0.681v-4.023c4-1.033,6.976-4.646,6.976-8.978v-4.646h-6.976v-4.66H61.558v11.637
			c0,4.329,2.976,7.942,6.976,8.978v6.354l-0.681-0.684c-0.911-0.908-2.377-0.908-3.285,0c-0.91,0.911-0.91,2.377,0,3.284
			l3.965,3.977v1.364h-6.17l-0.591,1.466c-0.329,0.841-0.637,1.501-0.91,2.08c-1.044,2.237-1.635,3.715-1.635,8.09
			c0,4.285,0.591,7.238,1.591,9.306H49.922v-2.33h2.33c1.283,0,2.316-1.033,2.316-2.316c0-1.297-1.033-2.33-2.316-2.33H28.979
			c-1.286,0-2.33,1.033-2.33,2.33c0,1.283,1.044,2.316,2.33,2.316h2.316v2.33h-3.875c-6.135-5.748-14.351-9.306-23.407-9.306H1.045
			v24.751c0,6.386,4.829,11.602,11.023,12.341l-8.626,34.488c-0.305,1.251,0.445,2.514,1.693,2.819
			c0.195,0.058,0.375,0.081,0.57,0.081c1.044,0,1.987-0.707,2.249-1.775l8.341-33.331l10.456,33.467
			c0.305,1.001,1.228,1.638,2.228,1.638c0.227,0,0.465-0.035,0.692-0.113c1.228-0.375,1.908-1.696,1.522-2.909L20.501,94.138h17.784
			v-2.967c0-3.852-0.672-7.543-1.842-11h20.455v9.307h6.991v18.627c0,10.261-8.355,18.613-18.627,18.613h-9.306
			c-1.283,0-2.33,1.044-2.33,2.33c0,1.283,1.047,2.33,2.33,2.33h69.82c1.283,0,2.33-1.047,2.33-2.33c0-1.286-1.047-2.33-2.33-2.33
			h-9.307c-10.272,0-18.627-8.352-18.627-18.613V89.478h6.991v-9.307h20.454c-1.17,3.456-1.842,7.148-1.842,11v2.967h15.637
			l-8.579,34.34c-0.317,1.251,0.442,2.514,1.693,2.819c0.183,0.058,0.375,0.081,0.567,0.081c1.036,0,1.99-0.707,2.252-1.775
			l8.329-33.331l10.467,33.467c0.305,1.001,1.228,1.638,2.214,1.638c0.239,0,0.468-0.035,0.707-0.113
			c1.225-0.375,1.908-1.696,1.521-2.909l-10.694-34.218h0.637C135.082,94.138,140.685,88.535,140.685,81.649L140.685,81.649z
			 M96.469,63.874h9.307v2.33h-9.307V63.874z M75.525,19.658c0,1.728-0.946,3.229-2.33,4.035v-4.035H75.525z M66.204,21.988v-6.976
			h2.33v11.011C67.15,25.214,66.204,23.704,66.204,21.988L66.204,21.988z M63.889,56.898c0-3.558,0.372-4.364,1.193-6.124
			c0.125-0.273,0.262-0.547,0.396-0.852h10.776c0.134,0.305,0.271,0.579,0.396,0.852c0.82,1.76,1.193,2.566,1.193,6.124
			c0,9.306-2.182,9.306-6.976,9.306S63.889,66.204,63.889,56.898L63.889,56.898z M35.955,63.874h9.306v2.33h-9.306V63.874z
			 M13.534,89.478c-4.317,0-7.829-3.511-7.829-7.829V61.602c9.33,0.524,17.522,5.399,22.578,12.614
			c0.989,1.443,1.865,2.979,2.615,4.602l0.25,0.547c1.373,3.124,2.226,6.534,2.432,10.112H13.534z M80.171,84.832h-6.976v23.273
			c0,7.602,3.66,14.363,9.318,18.613H59.217c5.658-4.25,9.318-11.011,9.318-18.613V84.832h-6.976v-4.661h18.613V84.832z
			 M107.265,75.511H34.465c-0.012-0.02-0.032-0.055-0.055-0.09c-0.273-0.544-0.579-1.068-0.887-1.591
			c-0.238-0.407-0.477-0.806-0.739-1.204c-0.239-0.375-0.489-0.751-0.751-1.114c-0.145-0.215-0.282-0.442-0.431-0.646h78.524
			c-0.16,0.204-0.285,0.431-0.442,0.646c-0.25,0.364-0.5,0.739-0.739,1.114c-0.262,0.399-0.5,0.797-0.739,1.204
			c-0.308,0.524-0.614,1.047-0.899,1.591C107.297,75.456,107.276,75.491,107.265,75.511L107.265,75.511z M110.581,79.366l0.25-0.547
			c0.739-1.623,1.626-3.159,2.615-4.602c5.056-7.215,13.248-12.09,22.578-12.614v20.047c0,4.317-3.511,7.829-7.829,7.829h-20.047
			C108.356,85.9,109.208,82.49,110.581,79.366L110.581,79.366z M110.581,79.366"/>
	</g>
</g>
</svg>
