<?xml version="1.0" encoding="utf-8"?>
<!-- Generator: Adobe Illustrator 17.0.0, SVG Export Plug-In . SVG Version: 6.00 Build 0)  -->
<!DOCTYPE svg PUBLIC "-//W3C//DTD SVG 1.1//EN" "http://www.w3.org/Graphics/SVG/1.1/DTD/svg11.dtd">
<svg version="1.1" id="Capa_1" xmlns="http://www.w3.org/2000/svg" xmlns:xlink="http://www.w3.org/1999/xlink" x="0px" y="0px"
	 width="141.73px" height="141.73px" viewBox="0 0 141.73 141.73" enable-background="new 0 0 141.73 141.73" xml:space="preserve">
<g>
	<g>
		<path fill="#83BEE9" d="M17.917,118.243c-3.422,0-6.304-2.565-6.701-5.982L7.768,82.964c-0.036-0.275-0.052-0.575-0.05-0.877
			c0.032-3.717,3.059-6.715,6.762-6.715c0.043,0,0.086,0,0.126,0c3.295,0,6.165,2.475,6.649,5.781l3.647,23.525l20.612,0.041
			c3.724,0,6.757,3.034,6.757,6.762c0,3.728-3.034,6.762-6.762,6.762H17.965C17.949,118.243,17.933,118.243,17.917,118.243z
			 M14.521,79.881c-1.276,0-2.286,0.999-2.295,2.236c0,0.095,0.005,0.196,0.016,0.295l3.451,29.324
			c0.133,1.145,1.093,1.999,2.238,1.999c0.005,0,0.011,0,0.016,0h27.561c1.242,0,2.254-1.01,2.254-2.254s-1.012-2.254-2.254-2.254
			l-22.544-0.045c-1.109-0.002-2.053-0.811-2.222-1.909l-3.944-25.447c-0.165-1.12-1.12-1.945-2.234-1.945
			C14.55,79.879,14.536,79.881,14.521,79.881z"/>
		
			<rect x="6.634" y="123.843" transform="matrix(-0.3164 0.9486 -0.9486 -0.3164 142.426 149.5601)" fill="#83BEE9" width="21.383" height="4.508"/>
		
			<rect x="42.124" y="115.4" transform="matrix(-0.9487 0.3162 -0.3162 -0.9487 126.3497 231.681)" fill="#83BEE9" width="4.508" height="21.383"/>
		<path fill="#83BEE9" d="M102.42,97.912H39.31c-1.244,0-2.254-1.008-2.254-2.254v-9.016c0-1.246,1.01-2.254,2.254-2.254h63.111
			c1.246,0,2.254,1.008,2.254,2.254v9.016C104.674,96.905,103.667,97.912,102.42,97.912z M41.564,93.405h58.603v-4.508H41.564
			V93.405z"/>
		<path fill="#83BEE9" d="M75.373,138.484h-9.016c-1.244,0-2.254-1.008-2.254-2.254V95.659c0-1.246,1.01-2.254,2.254-2.254h9.016
			c1.246,0,2.254,1.008,2.254,2.254v40.571C77.627,137.476,76.619,138.484,75.373,138.484z M68.611,133.976h4.508V97.912h-4.508
			V133.976z"/>
		<path fill="#83BEE9" d="M133.976,25.786H7.754c-0.694,0-1.35-0.32-1.776-0.868c-0.426-0.548-0.579-1.26-0.41-1.934l4.508-18.032
			c0.25-1.001,1.152-1.706,2.186-1.706h117.206c1.035,0,1.934,0.705,2.186,1.706l4.508,18.032c0.169,0.674,0.018,1.386-0.41,1.934
			C135.324,25.466,134.67,25.786,133.976,25.786z M10.642,21.278h120.447l-3.381-13.524H14.023L10.642,21.278z"/>
		<path fill="#83BEE9" d="M70.865,41.564c-6.214,0-11.27-5.056-11.27-11.27v-6.762c0-1.244,1.01-2.254,2.254-2.254h18.032
			c1.246,0,2.254,1.01,2.254,2.254v6.762C82.135,36.508,77.079,41.564,70.865,41.564z M64.103,25.786v4.508
			c0,3.728,3.034,6.762,6.762,6.762c3.728,0,6.762-3.034,6.762-6.762v-4.508H64.103z"/>
		<path fill="#83BEE9" d="M52.833,41.564c-6.214,0-11.27-5.056-11.27-11.27v-6.762c0-1.244,1.01-2.254,2.254-2.254h18.032
			c1.244,0,2.254,1.01,2.254,2.254v6.762C64.103,36.508,59.048,41.564,52.833,41.564z M46.071,25.786v4.508
			c0,3.728,3.034,6.762,6.762,6.762c3.728,0,6.762-3.034,6.762-6.762v-4.508H46.071z"/>
		<path fill="#83BEE9" d="M34.802,41.564c-6.214,0-11.27-5.056-11.27-11.27v-6.762c0-1.244,1.01-2.254,2.254-2.254h18.032
			c1.244,0,2.254,1.01,2.254,2.254v6.762C46.071,36.508,41.016,41.564,34.802,41.564z M28.04,25.786v4.508
			c0,3.728,3.034,6.762,6.762,6.762s6.762-3.034,6.762-6.762v-4.508H28.04z"/>
		<path fill="#83BEE9" d="M16.77,41.564c-6.214,0-11.27-5.056-11.27-11.27v-6.762c0-1.244,1.01-2.254,2.254-2.254h18.032
			c1.244,0,2.254,1.01,2.254,2.254v6.762C28.04,36.508,22.984,41.564,16.77,41.564z M10.008,25.786v4.508
			c0,3.728,3.034,6.762,6.762,6.762s6.762-3.034,6.762-6.762v-4.508H10.008z"/>
		<path fill="#83BEE9" d="M88.897,41.564c-6.214,0-11.27-5.056-11.27-11.27v-6.762c0-1.244,1.008-2.254,2.254-2.254h18.032
			c1.246,0,2.254,1.01,2.254,2.254v6.762C100.166,36.508,95.111,41.564,88.897,41.564z M82.135,25.786v4.508
			c0,3.728,3.034,6.762,6.762,6.762c3.728,0,6.762-3.034,6.762-6.762v-4.508H82.135z"/>
		<path fill="#83BEE9" d="M106.928,41.564c-6.214,0-11.27-5.056-11.27-11.27v-6.762c0-1.244,1.008-2.254,2.254-2.254h18.032
			c1.246,0,2.254,1.01,2.254,2.254v6.762C118.198,36.508,113.142,41.564,106.928,41.564z M100.166,25.786v4.508
			c0,3.728,3.034,6.762,6.762,6.762c3.728,0,6.762-3.034,6.762-6.762v-4.508H100.166z"/>
		<path fill="#83BEE9" d="M124.96,41.564c-6.214,0-11.27-5.056-11.27-11.27v-6.762c0-1.244,1.008-2.254,2.254-2.254h18.032
			c1.246,0,2.254,1.01,2.254,2.254v6.762C136.23,36.508,131.174,41.564,124.96,41.564z M118.198,25.786v4.508
			c0,3.728,3.034,6.762,6.762,6.762c3.728,0,6.762-3.034,6.762-6.762v-4.508H118.198z"/>
		<rect x="59.595" y="5.5" fill="#83BEE9" width="4.508" height="18.032"/>
		<rect x="77.627" y="5.5" fill="#83BEE9" width="4.508" height="18.032"/>
		<rect x="41.564" y="5.5" fill="#83BEE9" width="4.508" height="18.032"/>
		<rect x="95.659" y="5.5" fill="#83BEE9" width="4.508" height="18.032"/>
		
			<rect x="17.828" y="12.264" transform="matrix(-0.124 0.9923 -0.9923 -0.124 44.6544 -10.3856)" fill="#83BEE9" width="18.167" height="4.508"/>
		
			<rect x="112.565" y="5.434" transform="matrix(-0.9923 0.124 -0.124 -0.9923 230.5515 14.6852)" fill="#83BEE9" width="4.508" height="18.167"/>
		<path fill="#83BEE9" d="M123.795,118.243c-0.016,0-0.032,0-0.047,0H96.222c-3.728,0-6.762-3.034-6.762-6.762
			c0-3.728,3.034-6.762,6.762-6.762l20.608-0.041l3.649-23.543c0.485-3.291,3.352-5.763,6.687-5.763c0.043,0,0.079,0,0.128,0
			c3.66,0,6.69,2.998,6.717,6.71c0.002,0.293-0.016,0.593-0.052,0.89l-3.446,29.292
			C130.117,115.678,127.234,118.243,123.795,118.243z M127.207,79.881c-1.154,0-2.11,0.825-2.272,1.927l-3.947,25.465
			c-0.169,1.095-1.113,1.907-2.222,1.909l-22.54,0.045c-1.249,0-2.258,1.01-2.258,2.254s1.01,2.254,2.254,2.254h27.543
			c0.005,0,0.011,0,0.016,0c1.161,0,2.121-0.854,2.254-1.995l3.449-29.306c0.014-0.108,0.023-0.21,0.02-0.311
			c-0.009-1.244-1.019-2.243-2.254-2.243C127.239,79.881,127.221,79.881,127.207,79.881z"/>
		
			<rect x="122.142" y="115.402" transform="matrix(-0.9487 0.3162 -0.3162 -0.9487 282.2776 206.3847)" fill="#83BEE9" width="4.506" height="21.383"/>
		
			<rect x="86.664" y="123.822" transform="matrix(-0.3165 0.9486 -0.9486 -0.3165 247.7631 73.626)" fill="#83BEE9" width="21.383" height="4.506"/>
		<rect x="3.246" y="133.976" fill="#83BEE9" width="135.237" height="4.508"/>
	</g>
</g>
</svg>
