<?xml version="1.0" encoding="utf-8"?>
<!-- Generator: Adobe Illustrator 17.0.0, SVG Export Plug-In . SVG Version: 6.00 Build 0)  -->
<!DOCTYPE svg PUBLIC "-//W3C//DTD SVG 1.1//EN" "http://www.w3.org/Graphics/SVG/1.1/DTD/svg11.dtd">
<svg version="1.1" id="Capa_1" xmlns="http://www.w3.org/2000/svg" xmlns:xlink="http://www.w3.org/1999/xlink" x="0px" y="0px"
	 width="141.73px" height="141.73px" viewBox="0 0 141.73 141.73" enable-background="new 0 0 141.73 141.73" xml:space="preserve">
<g>
	<g>
		<g>
			<path fill="#83BEE9" d="M61.787,75.214c0.383-1.616-0.615-3.238-2.233-3.625c-2.327-0.544-5.725-5.626-5.42-8.109
				c0.203-1.646-0.972-3.151-2.618-3.349c-1.652-0.2-3.146,0.972-3.35,2.618c-0.67,5.485,4.754,13.453,10.007,14.701
				c0.23,0.052,0.463,0.076,0.692,0.076C60.227,77.526,61.461,76.59,61.787,75.214L61.787,75.214z"/>
			<path fill="#83BEE9" d="M61.787,75.214"/>
			<path fill="#83BEE9" d="M108.715,111.7c-0.593,0-1.175,0.038-1.751,0.114l-8.015-19.843c3.948-2.258,7.534-5.187,10.644-8.723
				c7.258-8.258,11.42-19.269,11.42-30.215c0-1.66-1.347-3.003-3.005-3.003H37.831c-1.658,0-3.008,1.343-3.008,3.003
				c0,1.976,0.137,3.953,0.402,5.913H22.251c-1.658,0-3.005,1.346-3.005,2.997c0,1.665,1.347,3.008,3.005,3.008h14.205
				c1.84,6.731,5.196,13.066,9.79,18.297c3.021,3.433,6.488,6.29,10.298,8.512l-16.74,42.637c-0.606,1.546,0.154,3.29,1.702,3.896
				c0.363,0.146,0.731,0.214,1.101,0.214c1.195,0,2.332-0.726,2.795-1.909l3.805-9.679h45.867
				c0.905,6.533,6.678,11.588,13.641,11.588c7.593,0,13.769-6.013,13.769-13.405C122.484,117.716,116.308,111.7,108.715,111.7z
				 M50.762,79.283c-5.641-6.422-9.131-14.755-9.804-23.246h73.927c-0.673,8.491-4.161,16.824-9.804,23.246
				c-2.556,2.905-6.165,6.108-10.98,8.499c-0.023,0.008-0.042,0.014-0.072,0.024c-0.145,0.065-0.287,0.141-0.414,0.211
				c-4.271,2.036-9.461,3.422-15.684,3.422c-6.377,0-11.68-1.451-15.996-3.563c-0.169-0.108-0.344-0.195-0.529-0.271
				c-0.009,0-0.014-0.006-0.022-0.011C56.75,85.229,53.26,82.118,50.762,79.283z M95.635,120.903H51.561l10.401-26.487
				c4.962,1.996,10.349,3.041,15.97,3.041c5.476,0,10.734-0.991,15.592-2.891l7.769,19.255
				C98.66,115.463,96.638,117.959,95.635,120.903z M108.715,132.493c-4.281,0-7.766-3.314-7.766-7.391
				c0-4.075,3.486-7.386,7.766-7.386c4.279,0,7.762,3.311,7.762,7.386C116.477,129.179,112.994,132.493,108.715,132.493z"/>
			<path fill="#83BEE9" d="M108.715,132.493"/>
			<path fill="#83BEE9" d="M53.828,40.402c-1.366,0.937-1.714,2.816-0.776,4.18c0.581,0.853,1.522,1.308,2.477,1.308
				c0.587,0,1.183-0.173,1.7-0.531c9.817-6.739,5.362-13.979,3.231-17.46c-2.37-3.845-3.375-6.013,1.5-9.36
				c1.371-0.945,1.715-2.81,0.776-4.178c-0.937-1.373-2.814-1.716-4.182-0.785c-9.814,6.744-5.359,13.989-3.22,17.469
				C57.699,34.895,58.71,37.058,53.828,40.402L53.828,40.402z"/>
			<path fill="#83BEE9" d="M53.828,40.402"/>
			<path fill="#83BEE9" d="M94.28,40.402c-1.371,0.937-1.719,2.813-0.775,4.18c0.581,0.853,1.515,1.308,2.474,1.308
				c0.585,0,1.179-0.173,1.698-0.531c9.813-6.739,5.362-13.981,3.225-17.46c-2.363-3.845-3.371-6.013,1.505-9.36
				c1.367-0.945,1.714-2.81,0.777-4.178c-0.941-1.373-2.812-1.716-4.178-0.785c-9.813,6.744-5.358,13.989-3.223,17.469
				C98.143,34.895,99.153,37.058,94.28,40.402L94.28,40.402z"/>
			<path fill="#83BEE9" d="M94.28,40.402"/>
			<path fill="#83BEE9" d="M71.853,40.402c-1.367,0.937-1.715,2.816-0.776,4.18c0.583,0.853,1.527,1.308,2.483,1.308
				c0.584,0,1.179-0.173,1.696-0.531c12.546-8.615,6.831-17.912,4.09-22.377c-3.402-5.537-4.936-9.257,2.37-14.276
				c1.367-0.942,1.715-2.816,0.776-4.18c-0.941-1.367-2.812-1.711-4.175-0.774c-12.549,8.615-6.832,17.91-4.088,22.377
				C77.624,31.665,79.161,35.387,71.853,40.402L71.853,40.402z"/>
			<path fill="#83BEE9" d="M71.853,40.402"/>
		</g>
	</g>
</g>
</svg>
