<?xml version="1.0" encoding="utf-8"?>
<!-- Generator: Adobe Illustrator 17.0.0, SVG Export Plug-In . SVG Version: 6.00 Build 0)  -->
<!DOCTYPE svg PUBLIC "-//W3C//DTD SVG 1.1//EN" "http://www.w3.org/Graphics/SVG/1.1/DTD/svg11.dtd">
<svg version="1.1" id="Capa_1" xmlns="http://www.w3.org/2000/svg" xmlns:xlink="http://www.w3.org/1999/xlink" x="0px" y="0px"
	 width="141.73px" height="141.73px" viewBox="0 0 141.73 141.73" enable-background="new 0 0 141.73 141.73" xml:space="preserve">
<path fill="#83BEE9" d="M127.104,113.9v-2.233c0-6.783-5.519-12.302-12.302-12.302c-3.825,0-7.411-1.49-10.109-4.192L74.487,64.984
	l-0.19,0.376c-2.528-1.684-5.396-2.757-8.419-3.174V50.679h6.92L39.92,28.758v-7.039h-6.005v7.038L1.02,50.679h7.141v66.223h0.23
	v3.109h5.545v-3.109h0.23V85.289h11.095v31.613h6.005v-6.005h11.298v6.005h6.005V85.289h11.303v31.613h0.23v3.003h5.545v-3.003h0.23
	V85.624c2.669,0.572,5.131,1.886,7.115,3.866l24.471,24.471c3.843,3.829,8.941,5.939,14.363,5.939v0.004h28.884V113.9H127.104z
	 M54.106,67.986h5.766v11.298h-5.581L54.106,67.986z M36.918,33.981l16.034,10.692H20.875L36.918,33.981z M59.872,50.679v11.303
	h-5.766c-3.184,0-5.771,2.587-5.771,5.771v11.532H25.712V67.752c0-3.184-2.591-5.771-5.775-5.771h-5.771V50.679H59.872z
	 M14.167,67.904l5.541-0.153v11.532h-5.541V67.904z M31.266,104.892V94.301h11.298v10.591H31.266z M42.564,88.296H31.266v-3.007
	h11.298V88.296z M101.713,109.712L72.112,80.107V81.5c-1.948-0.998-4.052-1.647-6.235-1.97V68.26c2.749,0.545,5.278,1.89,7.31,3.918
	l27.257,27.235c3.825,3.843,8.924,5.956,14.358,5.956c3.471,0,6.297,2.826,6.297,6.297v2.229h-9.273
	C108.009,113.895,104.414,112.405,101.713,109.712z"/>
</svg>
