<?xml version="1.0" encoding="utf-8"?>
<!-- Generator: Adobe Illustrator 17.0.0, SVG Export Plug-In . SVG Version: 6.00 Build 0)  -->
<!DOCTYPE svg PUBLIC "-//W3C//DTD SVG 1.1//EN" "http://www.w3.org/Graphics/SVG/1.1/DTD/svg11.dtd">
<svg version="1.1" id="Capa_1" xmlns="http://www.w3.org/2000/svg" xmlns:xlink="http://www.w3.org/1999/xlink" x="0px" y="0px"
	 width="141.73px" height="141.73px" viewBox="0 0 141.73 141.73" enable-background="new 0 0 141.73 141.73" xml:space="preserve">
<g>
	<g>
		<g>
			<path fill="#83BEE9" d="M61.809,75.204c0.382-1.612-0.613-3.23-2.228-3.616c-2.321-0.543-5.711-5.612-5.407-8.089
				c0.202-1.642-0.97-3.144-2.612-3.341c-1.648-0.2-3.138,0.97-3.342,2.612c-0.668,5.472,4.743,13.42,9.982,14.666
				c0.23,0.051,0.462,0.076,0.69,0.076C60.253,77.51,61.484,76.576,61.809,75.204L61.809,75.204z"/>
			<path fill="#83BEE9" d="M61.809,75.204"/>
			<path fill="#83BEE9" d="M108.623,111.6c-0.592,0-1.172,0.038-1.746,0.113l-7.996-19.794c3.938-2.252,7.515-5.175,10.618-8.702
				c7.241-8.238,11.392-19.222,11.392-30.141c0-1.656-1.344-2.995-2.998-2.995H37.912c-1.654,0-3.001,1.34-3.001,2.995
				c0,1.972,0.137,3.943,0.401,5.899H22.37c-1.654,0-2.998,1.342-2.998,2.99c0,1.661,1.344,3,2.998,3h14.17
				c1.835,6.714,5.183,13.034,9.766,18.252c3.014,3.425,6.472,6.274,10.272,8.491l-16.699,42.533
				c-0.605,1.542,0.154,3.282,1.698,3.887c0.362,0.146,0.729,0.214,1.098,0.214c1.192,0,2.327-0.724,2.789-1.904l3.796-9.656h45.755
				c0.903,6.517,6.662,11.56,13.608,11.56c7.575,0,13.735-5.999,13.735-13.372C122.358,117.601,116.197,111.6,108.623,111.6z
				 M50.811,79.263c-5.627-6.406-9.109-14.719-9.78-23.189h73.747c-0.671,8.47-4.151,16.783-9.78,23.189
				c-2.549,2.898-6.15,6.093-10.953,8.478c-0.023,0.008-0.042,0.014-0.072,0.024c-0.144,0.065-0.286,0.14-0.413,0.21
				c-4.261,2.031-9.438,3.414-15.646,3.414c-6.362,0-11.651-1.448-15.957-3.554c-0.169-0.108-0.343-0.195-0.528-0.27
				c-0.009,0-0.014-0.006-0.022-0.011C56.784,85.194,53.303,82.091,50.811,79.263z M95.575,120.78H51.608l10.375-26.423
				c4.949,1.991,10.324,3.033,15.931,3.033c5.462,0,10.708-0.988,15.554-2.884l7.75,19.208
				C98.592,115.354,96.576,117.844,95.575,120.78z M108.623,132.343c-4.27,0-7.747-3.306-7.747-7.373
				c0-4.065,3.477-7.368,7.747-7.368c4.269,0,7.743,3.303,7.743,7.368C116.366,129.037,112.891,132.343,108.623,132.343z"/>
			<path fill="#83BEE9" d="M108.623,132.343"/>
			<path fill="#83BEE9" d="M53.87,40.476c-1.363,0.935-1.709,2.809-0.774,4.17c0.579,0.851,1.518,1.305,2.471,1.305
				c0.586,0,1.18-0.173,1.696-0.529c9.793-6.723,5.349-13.944,3.223-17.418c-2.365-3.835-3.367-5.999,1.496-9.337
				c1.368-0.943,1.711-2.804,0.774-4.168c-0.935-1.369-2.807-1.712-4.171-0.783c-9.79,6.728-5.346,13.955-3.213,17.426
				C57.731,34.983,58.74,37.141,53.87,40.476L53.87,40.476z"/>
			<path fill="#83BEE9" d="M53.87,40.476"/>
			<path fill="#83BEE9" d="M94.223,40.476c-1.368,0.935-1.715,2.806-0.774,4.17c0.579,0.851,1.511,1.305,2.468,1.305
				c0.584,0,1.176-0.173,1.693-0.529c9.789-6.723,5.349-13.947,3.217-17.418c-2.358-3.835-3.362-5.999,1.502-9.337
				c1.364-0.943,1.71-2.804,0.775-4.168c-0.939-1.369-2.805-1.712-4.168-0.783c-9.789,6.728-5.345,13.955-3.215,17.426
				C98.076,34.983,99.084,37.141,94.223,40.476L94.223,40.476z"/>
			<path fill="#83BEE9" d="M94.223,40.476"/>
			<path fill="#83BEE9" d="M71.851,40.476c-1.364,0.935-1.711,2.809-0.774,4.17c0.582,0.851,1.523,1.305,2.477,1.305
				c0.582,0,1.176-0.173,1.692-0.529c12.516-8.594,6.814-17.869,4.08-22.323c-3.393-5.523-4.924-9.234,2.365-14.242
				c1.364-0.94,1.711-2.809,0.774-4.17c-0.939-1.364-2.805-1.707-4.165-0.772c-12.518,8.594-6.815,17.866-4.078,22.323
				C77.608,31.761,79.14,35.474,71.851,40.476L71.851,40.476z"/>
			<path fill="#83BEE9" d="M71.851,40.476"/>
		</g>
	</g>
</g>
</svg>
