<?xml version="1.0" encoding="utf-8"?>
<!-- Generator: Adobe Illustrator 17.0.0, SVG Export Plug-In . SVG Version: 6.00 Build 0)  -->
<!DOCTYPE svg PUBLIC "-//W3C//DTD SVG 1.1//EN" "http://www.w3.org/Graphics/SVG/1.1/DTD/svg11.dtd">
<svg version="1.1" id="Capa_1" xmlns="http://www.w3.org/2000/svg" xmlns:xlink="http://www.w3.org/1999/xlink" x="0px" y="0px"
	 width="141.73px" height="141.73px" viewBox="0 0 141.73 141.73" enable-background="new 0 0 141.73 141.73" xml:space="preserve">
<g>
	<g>
		<path fill="#83BEE9" d="M16.464,119.544c-3.515,0-6.477-2.635-6.885-6.146L6.035,83.296c-0.037-0.283-0.053-0.591-0.051-0.901
			c0.032-3.819,3.143-6.899,6.948-6.899c0.044,0,0.088,0,0.13,0c3.386,0,6.334,2.543,6.832,5.94l3.747,24.17l21.178,0.042
			c3.826,0,6.943,3.117,6.943,6.948c0,3.83-3.117,6.948-6.948,6.948H16.512C16.496,119.544,16.48,119.544,16.464,119.544z
			 M12.974,80.128c-1.311,0-2.348,1.026-2.358,2.297c0,0.097,0.005,0.201,0.016,0.303l3.546,30.129
			c0.137,1.176,1.123,2.054,2.3,2.054c0.005,0,0.012,0,0.016,0h28.318c1.276,0,2.316-1.038,2.316-2.316
			c0-1.278-1.04-2.316-2.316-2.316l-23.163-0.046c-1.139-0.002-2.11-0.834-2.283-1.962l-4.053-26.146
			c-0.169-1.151-1.151-1.999-2.295-1.999C13.004,80.126,12.99,80.128,12.974,80.128z"/>
		
			<rect x="4.87" y="125.298" transform="matrix(-0.3164 0.9486 -0.9486 -0.3164 141.9294 152.951)" fill="#83BEE9" width="21.97" height="4.632"/>
		
			<rect x="41.335" y="116.622" transform="matrix(-0.9487 0.3162 -0.3162 -0.9487 125.4119 234.866)" fill="#83BEE9" width="4.632" height="21.971"/>
		<path fill="#83BEE9" d="M103.287,98.655H38.443c-1.278,0-2.316-1.035-2.316-2.316v-9.263c0-1.281,1.037-2.316,2.316-2.316h64.844
			c1.281,0,2.316,1.035,2.316,2.316v9.263C105.603,97.62,104.567,98.655,103.287,98.655z M40.759,94.023h60.212v-4.632H40.759
			V94.023z"/>
		<path fill="#83BEE9" d="M75.497,140.34h-9.263c-1.278,0-2.316-1.035-2.316-2.316V96.339c0-1.281,1.038-2.316,2.316-2.316h9.263
			c1.281,0,2.316,1.035,2.316,2.316v41.685C77.813,139.305,76.777,140.34,75.497,140.34z M68.549,135.709h4.632V98.655h-4.632
			V135.709z"/>
		<path fill="#83BEE9" d="M135.709,24.548H6.021c-0.713,0-1.387-0.329-1.825-0.892c-0.438-0.563-0.595-1.295-0.421-1.987
			L8.407,3.143C8.664,2.115,9.59,1.39,10.653,1.39h120.424c1.063,0,1.987,0.725,2.246,1.753l4.632,18.527
			c0.174,0.692,0.019,1.424-0.421,1.987C137.093,24.219,136.422,24.548,135.709,24.548z M8.988,19.916h123.754l-3.474-13.895H12.462
			L8.988,19.916z"/>
		<path fill="#83BEE9" d="M70.865,40.759c-6.385,0-11.579-5.194-11.579-11.579v-6.948c0-1.278,1.037-2.316,2.316-2.316h18.527
			c1.281,0,2.316,1.037,2.316,2.316v6.948C82.444,35.565,77.25,40.759,70.865,40.759z M63.917,24.548v4.632
			c0,3.83,3.117,6.948,6.948,6.948c3.83,0,6.948-3.117,6.948-6.948v-4.632H63.917z"/>
		<path fill="#83BEE9" d="M52.338,40.759c-6.385,0-11.579-5.194-11.579-11.579v-6.948c0-1.278,1.037-2.316,2.316-2.316h18.527
			c1.278,0,2.316,1.037,2.316,2.316v6.948C63.917,35.565,58.723,40.759,52.338,40.759z M45.391,24.548v4.632
			c0,3.83,3.117,6.948,6.948,6.948s6.948-3.117,6.948-6.948v-4.632H45.391z"/>
		<path fill="#83BEE9" d="M33.812,40.759c-6.385,0-11.579-5.194-11.579-11.579v-6.948c0-1.278,1.037-2.316,2.316-2.316h18.527
			c1.278,0,2.316,1.037,2.316,2.316v6.948C45.391,35.565,40.196,40.759,33.812,40.759z M26.864,24.548v4.632
			c0,3.83,3.117,6.948,6.948,6.948c3.83,0,6.948-3.117,6.948-6.948v-4.632H26.864z"/>
		<path fill="#83BEE9" d="M15.285,40.759c-6.385,0-11.579-5.194-11.579-11.579v-6.948c0-1.278,1.037-2.316,2.316-2.316h18.527
			c1.278,0,2.316,1.037,2.316,2.316v6.948C26.864,35.565,21.67,40.759,15.285,40.759z M8.337,24.548v4.632
			c0,3.83,3.117,6.948,6.948,6.948s6.948-3.117,6.948-6.948v-4.632H8.337z"/>
		<path fill="#83BEE9" d="M89.392,40.759c-6.385,0-11.579-5.194-11.579-11.579v-6.948c0-1.278,1.035-2.316,2.316-2.316h18.527
			c1.281,0,2.316,1.037,2.316,2.316v6.948C100.971,35.565,95.777,40.759,89.392,40.759z M82.444,24.548v4.632
			c0,3.83,3.117,6.948,6.948,6.948s6.948-3.117,6.948-6.948v-4.632H82.444z"/>
		<path fill="#83BEE9" d="M107.918,40.759c-6.385,0-11.579-5.194-11.579-11.579v-6.948c0-1.278,1.035-2.316,2.316-2.316h18.527
			c1.281,0,2.316,1.037,2.316,2.316v6.948C119.498,35.565,114.303,40.759,107.918,40.759z M100.971,24.548v4.632
			c0,3.83,3.117,6.948,6.948,6.948c3.83,0,6.948-3.117,6.948-6.948v-4.632H100.971z"/>
		<path fill="#83BEE9" d="M126.445,40.759c-6.385,0-11.579-5.194-11.579-11.579v-6.948c0-1.278,1.035-2.316,2.316-2.316h18.527
			c1.281,0,2.316,1.037,2.316,2.316v6.948C138.024,35.565,132.83,40.759,126.445,40.759z M119.498,24.548v4.632
			c0,3.83,3.117,6.948,6.948,6.948s6.948-3.117,6.948-6.948v-4.632H119.498z"/>
		<rect x="59.286" y="3.706" fill="#83BEE9" width="4.632" height="18.527"/>
		<rect x="77.813" y="3.706" fill="#83BEE9" width="4.632" height="18.527"/>
		<rect x="40.759" y="3.706" fill="#83BEE9" width="4.632" height="18.527"/>
		<rect x="96.339" y="3.706" fill="#83BEE9" width="4.632" height="18.527"/>
		
			<rect x="16.372" y="10.655" transform="matrix(-0.124 0.9923 -0.9923 -0.124 41.7627 -10.927)" fill="#83BEE9" width="18.666" height="4.632"/>
		
			<rect x="113.71" y="3.637" transform="matrix(-0.9923 0.124 -0.124 -0.9923 232.7641 11.4532)" fill="#83BEE9" width="4.632" height="18.666"/>
		<path fill="#83BEE9" d="M125.248,119.544c-0.016,0-0.032,0-0.049,0H96.918c-3.83,0-6.948-3.117-6.948-6.948
			c0-3.83,3.117-6.948,6.948-6.948l21.174-0.042l3.749-24.189c0.498-3.381,3.444-5.922,6.871-5.922c0.044,0,0.081,0,0.132,0
			c3.761,0,6.873,3.08,6.901,6.894c0.002,0.301-0.016,0.609-0.053,0.915l-3.541,30.097
			C131.744,116.909,128.782,119.544,125.248,119.544z M128.754,80.128c-1.186,0-2.168,0.848-2.334,1.98l-4.055,26.164
			c-0.174,1.125-1.144,1.959-2.283,1.962l-23.158,0.046c-1.283,0-2.32,1.037-2.32,2.316s1.038,2.316,2.316,2.316h28.3
			c0.005,0,0.012,0,0.016,0c1.193,0,2.179-0.878,2.316-2.05l3.543-30.111c0.014-0.111,0.023-0.215,0.021-0.32
			c-0.009-1.278-1.047-2.304-2.316-2.304C128.787,80.128,128.768,80.128,128.754,80.128z"/>
		
			<rect x="123.55" y="116.625" transform="matrix(-0.9487 0.3162 -0.3162 -0.9487 285.6212 208.8751)" fill="#83BEE9" width="4.629" height="21.971"/>
		
			<rect x="87.098" y="125.276" transform="matrix(-0.3165 0.9486 -0.9486 -0.3165 250.1587 74.9317)" fill="#83BEE9" width="21.971" height="4.629"/>
		<rect x="1.39" y="135.709" fill="#83BEE9" width="138.951" height="4.632"/>
	</g>
</g>
</svg>
