<?xml version="1.0" encoding="utf-8"?>
<!-- Generator: Adobe Illustrator 17.0.0, SVG Export Plug-In . SVG Version: 6.00 Build 0)  -->
<!DOCTYPE svg PUBLIC "-//W3C//DTD SVG 1.1//EN" "http://www.w3.org/Graphics/SVG/1.1/DTD/svg11.dtd">
<svg version="1.1" id="Capa_1" xmlns="http://www.w3.org/2000/svg" xmlns:xlink="http://www.w3.org/1999/xlink" x="0px" y="0px"
	 width="141.73px" height="141.73px" viewBox="0 0 141.73 141.73" enable-background="new 0 0 141.73 141.73" xml:space="preserve">
<g>
	<g>
		<path fill="#E9BD4C" d="M55.788,30.056c-5.308,5.276-8.607,12.791-8.607,19.614c0,1.636,1.324,2.961,2.961,2.961
			s2.961-1.324,2.961-2.961c0-5.221,2.692-11.273,6.861-15.416c1.159-1.151,1.165-3.027,0.012-4.186
			C58.82,28.908,56.947,28.896,55.788,30.056z"/>
		<path fill="#E9BD4C" d="M109.352,11.466h-3.871c-1.034-1.737-2.848-2.961-5.011-2.961c-3.264,0-5.921,2.657-5.921,5.921
			s2.657,5.921,5.921,5.921c2.163,0,3.977-1.224,5.011-2.961h3.871c1.636,0,2.961-1.324,2.961-2.961S110.989,11.466,109.352,11.466z
			"/>
		<path fill="#E9BD4C" d="M122.206,9.829c-3.146-6.294-9.474-10.206-16.514-10.206H36.038c-7.04,0-13.369,3.912-16.514,10.206
			c-1.275,2.55-1.949,5.406-1.949,8.257v7.08c0,0.876,0.061,1.746,0.185,2.611l4.675,32.731c0.827,5.797,5.869,10.168,11.724,10.168
			h6.947c1.135,2.076,2.453,4.041,3.866,5.921h-6.673c-4.898,0-8.882,3.984-8.882,8.882c0,3.916,2.564,7.21,6.088,8.388
			c0.839,11.971,7.623,22.804,18.166,28.642c-4.186,4.415-6.491,10.188-6.491,16.26c0,1.636,1.324,2.961,2.961,2.961h41.448
			c1.636,0,2.961-1.324,2.961-2.961c0-6.071-2.304-11.845-6.598-16.251c10.643-5.846,17.433-16.679,18.272-28.65
			c3.525-1.178,6.089-4.472,6.089-8.388c0-4.898-3.984-8.882-8.882-8.882h-6.673c1.413-1.88,2.731-3.845,3.866-5.921h6.947
			c5.855,0,10.897-4.371,11.724-10.168l4.675-32.731c0.124-0.864,0.185-1.735,0.185-2.611v-7.08
			C124.155,15.236,123.481,12.379,122.206,9.829z M85.104,117.329c-1.593,0.873-2.666,2.397-2.946,4.181
			c-0.286,1.847,0.298,3.695,1.605,5.071c2.449,2.585,4.036,5.785,4.617,9.229H53.35c0.578-3.443,2.168-6.644,4.617-9.226
			c1.307-1.379,1.891-3.227,1.605-5.074c-0.28-1.784-1.353-3.307-2.943-4.178c-8.602-4.727-14.197-13.357-15.169-22.97h58.809
			C99.298,103.974,93.704,112.604,85.104,117.329z M106.392,85.479c0,1.634-1.327,2.961-2.961,2.961H38.299
			c-1.634,0-2.961-1.327-2.961-2.961c0-1.634,1.327-2.961,2.961-2.961h65.132C105.065,82.519,106.392,83.846,106.392,85.479z
			 M52.698,76.598c-6.96-7.276-11.438-17.702-11.438-26.928c0-15.239,12.66-32.283,29.606-32.283s29.606,17.043,29.606,32.283
			c0,9.227-4.478,19.653-11.438,26.928H52.698z M118.234,25.167c0,0.593-0.043,1.185-0.127,1.772l-4.675,32.731
			c-0.413,2.9-2.932,5.086-5.86,5.086h-4.243c1.936-4.993,3.064-10.178,3.064-15.086c0-18.035-15.193-38.204-35.527-38.204
			S35.338,31.634,35.338,49.669c0,4.908,1.127,10.093,3.064,15.086h-4.243c-2.929,0-5.447-2.186-5.86-5.086l-4.675-32.731
			c-0.084-0.587-0.127-1.18-0.127-1.772v-7.08c0-1.937,0.457-3.877,1.324-5.609c2.137-4.276,6.436-6.933,11.218-6.933h69.654
			c4.782,0,9.081,2.657,11.218,6.933c0.867,1.732,1.324,3.672,1.324,5.609V25.167z"/>
	</g>
</g>
</svg>
