<?xml version="1.0" encoding="utf-8"?>
<!-- Generator: Adobe Illustrator 17.0.0, SVG Export Plug-In . SVG Version: 6.00 Build 0)  -->
<!DOCTYPE svg PUBLIC "-//W3C//DTD SVG 1.1//EN" "http://www.w3.org/Graphics/SVG/1.1/DTD/svg11.dtd">
<svg version="1.1" id="Capa_1" xmlns="http://www.w3.org/2000/svg" xmlns:xlink="http://www.w3.org/1999/xlink" x="0px" y="0px"
	 width="141.73px" height="141.73px" viewBox="0 0 141.73 141.73" enable-background="new 0 0 141.73 141.73" xml:space="preserve">
<g>
	<g>
		<path fill="#E9BD4C" d="M107.946,134.701V94.745c3.841-1.213,6.646-4.823,6.646-9.039c0-5.109-4.12-9.33-9.212-9.471
			c-0.057-0.004-0.114-0.005-0.172-0.005h-8.769c-0.993-10.069-9.508-17.961-19.833-17.961h-38.62
			c-10.325,0-18.84,7.892-19.833,17.961H9.384c-0.058,0-0.115,0.002-0.172,0.005C4.12,76.376,0,80.597,0,85.706
			c0,4.216,2.805,7.826,6.646,9.039v39.955 M6.646,134.701H2.738c-1.512,0-2.738,1.226-2.738,2.738c0,1.512,1.226,2.738,2.738,2.738
			h125.666c1.512,0,2.738-1.226,2.738-2.738c0-1.512-1.226-2.738-2.738-2.738h-20.458 M12.122,125.393v-5.487h8.67H93.8h8.67v5.487
			v0.062H12.122V125.393z M23.531,114.43c0.095-7.89,6.543-14.279,14.455-14.279h38.62c7.912,0,14.36,6.389,14.455,14.279H23.531z
			 M105.171,81.708c2.175,0.029,3.945,1.823,3.945,3.998s-1.77,3.969-3.945,3.998c-1.498,0.02-2.701,1.24-2.701,2.738v21.988h-5.933
			V81.706h8.558C105.121,81.706,105.146,81.707,105.171,81.708z M23.53,78.2c0-7.971,6.485-14.456,14.456-14.456h38.62
			c7.971,0,14.456,6.485,14.456,14.456v0.767v21.939c-3.635-3.833-8.769-6.231-14.456-6.231h-38.62
			c-5.687,0-10.821,2.398-14.456,6.231V78.968L23.53,78.2z M5.476,85.706c0-2.175,1.77-3.969,3.945-3.998
			c0.025,0,0.05-0.001,0.075-0.002h8.559v32.724h-5.933V92.442c0-1.498-1.204-2.718-2.701-2.738
			C7.245,89.675,5.476,87.881,5.476,85.706z M12.122,130.93h90.348v3.771H12.122V130.93z"/>
		<path fill="#E9BD4C" d="M137.439,0H58.042c-1.512,0-2.738,1.226-2.738,2.738V51.22c0,1.512,1.226,2.738,2.738,2.738h79.397
			c1.512,0,2.738-1.226,2.738-2.738V2.738C140.176,1.226,138.951,0,137.439,0z M125.882,48.482h-7.099V30.124h7.099V48.482z
			 M113.307,27.386v21.095h-7.099V27.386V24.39h7.099V27.386z M100.733,48.482h-7.099V30.124h7.099V48.482z M88.158,48.482h-7.099
			V30.124h7.099V48.482z M131.358,48.482V27.386c0-1.512-1.226-2.738-2.738-2.738h-9.837v-2.997c0-1.512-1.226-2.738-2.738-2.738
			H103.47c-1.512,0-2.738,1.226-2.738,2.738v2.997l0,0H78.321c-1.512,0-2.738,1.226-2.738,2.738v21.096H60.78V5.476h73.921v4.54
			H79.97c-1.512,0-2.738,1.226-2.738,2.738s1.226,2.738,2.738,2.738h54.73v32.991H131.358z"/>
		<path fill="#E9BD4C" d="M71.361,10.478c-0.151-0.099-0.309-0.183-0.474-0.252c-0.164-0.068-0.337-0.12-0.512-0.156
			c-0.353-0.071-0.717-0.071-1.07,0c-0.175,0.036-0.348,0.088-0.512,0.156c-0.164,0.068-0.323,0.153-0.474,0.252
			c-0.148,0.099-0.287,0.214-0.416,0.339c-0.126,0.126-0.238,0.266-0.339,0.416c-0.099,0.148-0.183,0.309-0.252,0.474
			c-0.068,0.164-0.12,0.337-0.156,0.512s-0.055,0.356-0.055,0.534c0,0.178,0.019,0.358,0.055,0.537
			c0.036,0.175,0.088,0.345,0.156,0.512c0.068,0.164,0.153,0.323,0.252,0.471c0.101,0.151,0.214,0.29,0.339,0.416
			c0.512,0.512,1.216,0.802,1.938,0.802c0.178,0,0.356-0.016,0.534-0.052c0.175-0.036,0.348-0.088,0.512-0.156
			c0.164-0.068,0.323-0.153,0.474-0.252c0.148-0.101,0.29-0.214,0.416-0.342c0.126-0.126,0.241-0.266,0.339-0.416
			c0.099-0.148,0.183-0.307,0.252-0.471c0.068-0.167,0.12-0.339,0.156-0.512c0.036-0.178,0.055-0.359,0.055-0.537
			c0-0.72-0.293-1.426-0.802-1.936C71.651,10.691,71.509,10.576,71.361,10.478z"/>
		<path fill="#E9BD4C" d="M28.404,46.76c10.721,0,19.443-8.722,19.443-19.443S39.125,7.874,28.404,7.874S8.961,16.596,8.961,27.317
			S17.683,46.76,28.404,46.76z M28.404,13.35c7.701,0,13.967,6.266,13.967,13.967s-6.265,13.967-13.967,13.967
			s-13.967-6.266-13.967-13.967C14.437,19.616,20.703,13.35,28.404,13.35z"/>
	</g>
</g>
</svg>
