<?xml version="1.0" encoding="utf-8"?>
<!-- Generator: Adobe Illustrator 17.0.0, SVG Export Plug-In . SVG Version: 6.00 Build 0)  -->
<!DOCTYPE svg PUBLIC "-//W3C//DTD SVG 1.1//EN" "http://www.w3.org/Graphics/SVG/1.1/DTD/svg11.dtd">
<svg version="1.1" id="Capa_1" xmlns="http://www.w3.org/2000/svg" xmlns:xlink="http://www.w3.org/1999/xlink" x="0px" y="0px"
	 width="141.73px" height="141.73px" viewBox="0 0 141.73 141.73" enable-background="new 0 0 141.73 141.73" xml:space="preserve">
<g>
	<g>
		<g>
			<path fill="#E9BD4C" d="M101.455,3.037H41.179c-4.417,0-7.959,4.011-7.959,8.975v117.704c0,4.952,3.542,8.978,7.959,8.978h60.276
				c4.421,0,7.99-4.026,7.99-8.978V12.011C109.445,7.047,105.876,3.037,101.455,3.037L101.455,3.037z M102.717,127.252
				c0,2.607-1.834,4.723-4.197,4.723H44.953c-2.363,0-4.32-2.116-4.32-4.723V14.247c0-2.607,1.957-4.754,4.32-4.754H98.52
				c2.363,0,4.197,2.147,4.197,4.754V127.252z M101.501,126.522"/>
			<path fill="#E9BD4C" d="M85.075,53.319c-0.345-3.751-3.511-6.615-7.293-6.615H64.855c-3.786,0-6.932,2.864-7.297,6.615
				l-2.333,25.203c-0.043,0.62,0.167,1.228,0.593,1.682c0.422,0.453,1.011,0.709,1.631,0.709h4.421l0.078,40.734
				c0,1.24,1.089,2.182,2.329,2.182h3.755c1.255,0,2.24-0.942,2.24-2.182V87.834c0-0.577,0.515-0.942,1.073-0.942
				c0.577,0,1.031,0.364,1.031,0.942v33.813c0,1.24,0.969,2.182,2.224,2.182h3.739c1.24,0,2.302-0.942,2.302-2.182V80.913h4.542
				c0.605,0,1.209-0.256,1.62-0.709c0.438-0.453,0.651-1.046,0.605-1.666L85.075,53.319z M85.075,53.319"/>
			<path fill="#E9BD4C" d="M80.595,34.234c0,5.115-4.162,9.277-9.277,9.277c-5.119,0-9.281-4.162-9.281-9.277
				c0-5.134,4.162-9.281,9.281-9.281C76.434,24.954,80.595,29.1,80.595,34.234L80.595,34.234z M80.595,34.234"/>
		</g>
		<g>
			<path fill="#E9BD4C" d="M139.352,65.382l-8.283-8.283c-0.955-0.955-2.503-0.955-3.458,0l-8.283,8.283
				c-0.79,0.79-0.944,2.005-0.383,2.971c0.561,0.966,1.713,1.423,2.785,1.122l3.687-1.029V82.36c0,1.348,1.072,2.45,2.431,2.45
				h2.982c1.362,0,2.412-1.101,2.412-2.45V68.446l3.697,1.029c1.072,0.301,2.224-0.168,2.785-1.122
				C140.286,67.388,140.139,66.172,139.352,65.382L139.352,65.382z M139.352,65.382"/>
			<path fill="#E9BD4C" d="M20.038,71.886l-3.647,1.029V57.454c0-1.351-1.144-2.41-2.492-2.41h-2.992
				c-1.362,0-2.442,1.059-2.442,2.41v15.461l-3.689-1.029c-1.069-0.301-2.213,0.168-2.774,1.122
				c-0.561,0.966-0.404,2.181,0.386,2.971l8.28,8.28c0.955,0.968,2.503,0.968,3.471,0l8.28-8.28c0.79-0.79,0.955-2.005,0.383-2.971
				C22.24,72.053,21.11,71.585,20.038,71.886L20.038,71.886z M20.038,71.886"/>
		</g>
	</g>
</g>
</svg>
