<?xml version="1.0" encoding="utf-8"?>
<!-- Generator: Adobe Illustrator 17.0.0, SVG Export Plug-In . SVG Version: 6.00 Build 0)  -->
<!DOCTYPE svg PUBLIC "-//W3C//DTD SVG 1.1//EN" "http://www.w3.org/Graphics/SVG/1.1/DTD/svg11.dtd">
<svg version="1.1" id="Capa_1" xmlns="http://www.w3.org/2000/svg" xmlns:xlink="http://www.w3.org/1999/xlink" x="0px" y="0px"
	 width="141.73px" height="141.73px" viewBox="0 0 141.73 141.73" enable-background="new 0 0 141.73 141.73" xml:space="preserve">
<g>
	<g>
		<path fill="#83BEE9" d="M139.409,117.53h-14.84V97.429c5.57-1.021,9.791-5.682,9.791-11.264c0-2.824-1.13-9.858-2.955-16.296
			c-2.618-9.237-5.52-13.539-9.131-13.539c-3.613,0-6.515,4.302-9.132,13.539c-1.826,6.438-2.956,13.472-2.956,16.296
			c0,5.582,4.221,10.244,9.793,11.264v20.101h-14.996V60.542c2.844-0.959,4.896-3.65,4.896-6.813v-9.791
			c0-1.269-1.026-2.295-2.295-2.295h-2.601v-2.756h5.051c1.267,0,2.295-1.026,2.295-2.295c0-1.267-1.028-2.295-2.295-2.295H95.345
			c-1.267,0-2.295,1.028-2.295,2.295c0,1.269,1.028,2.295,2.295,2.295h5.049v2.756h-2.599c-1.269,0-2.295,1.026-2.295,2.295v9.791
			c0,3.163,2.053,5.854,4.894,6.813v56.988H92.37l-1.56-7.65h2.087c1.267,0,2.295-1.028,2.295-2.295
			c0-1.267-1.028-2.295-2.295-2.295h-5.049v-5.203h2.599c1.269,0,2.295-1.026,2.295-2.295c0-1.267-1.026-2.295-2.295-2.295h-2.599
			v-2.754h2.599c1.269,0,2.295-1.028,2.295-2.295c0-1.267-1.026-2.295-2.295-2.295H46.385c-1.267,0-2.295,1.028-2.295,2.295
			c0,1.267,1.028,2.295,2.295,2.295h2.601v2.754h-2.601c-1.267,0-2.295,1.028-2.295,2.295c0,1.269,1.028,2.295,2.295,2.295h2.601
			v5.203h-5.049c-1.269,0-2.295,1.028-2.295,2.295c0,1.267,1.026,2.295,2.295,2.295h2.086l-1.56,7.65H26.649V95.052
			c9.636-1.14,17.135-9.353,17.135-19.291c0-17.241-16.64-53.296-17.348-54.823c-0.376-0.81-1.188-1.328-2.081-1.328
			c-0.894,0-1.706,0.518-2.083,1.328C21.563,22.465,4.922,58.521,4.922,75.761c0,9.937,7.499,18.151,17.136,19.291v22.478H2.321
			c-1.267,0-2.295,1.028-2.295,2.295c0,1.267,1.028,2.295,2.295,2.295h137.088c1.269,0,2.295-1.028,2.295-2.295
			C141.704,118.558,140.678,117.53,139.409,117.53L139.409,117.53z M114.777,86.165c0-2.047,0.9-8.171,2.586-14.345
			c2.455-8.983,4.517-10.631,4.911-10.871c0.393,0.241,2.455,1.889,4.91,10.871c1.688,6.175,2.586,12.298,2.586,14.345
			c0,3.062-2.188,5.661-5.201,6.553v-4.717c0-1.267-1.028-2.295-2.295-2.295c-1.269,0-2.295,1.028-2.295,2.295v4.717
			C116.964,91.826,114.777,89.227,114.777,86.165L114.777,86.165z M100.089,46.233h5.201v7.496c0,1.434-1.167,2.601-2.601,2.601
			c-1.433,0-2.599-1.167-2.599-2.601V46.233z M9.512,75.761c0-12.738,10.317-37.832,14.841-48.219
			c4.523,10.388,14.84,35.482,14.84,48.219c0,7.403-5.448,13.556-12.545,14.662V76.712l6.671-6.671c0.897-0.897,0.897-2.35,0-3.246
			c-0.897-0.896-2.349-0.896-3.245,0l-3.426,3.425v-4.251c0-1.267-1.028-2.295-2.295-2.295c-1.269,0-2.295,1.028-2.295,2.295v11.596
			l-3.426-3.426c-0.897-0.897-2.35-0.897-3.247,0c-0.897,0.896-0.897,2.349,0,3.245l6.673,6.671v6.368
			C14.96,89.318,9.512,83.165,9.512,75.761L9.512,75.761z M53.576,92.744h29.683v2.754H53.576V92.744z M53.576,100.087h29.683v5.203
			H53.576V100.087z M50.708,109.88h35.42l1.558,7.65H49.149L50.708,109.88z M50.708,109.88"/>
	</g>
</g>
</svg>
