<?xml version="1.0" encoding="utf-8"?>
<!-- Generator: Adobe Illustrator 17.0.0, SVG Export Plug-In . SVG Version: 6.00 Build 0)  -->
<!DOCTYPE svg PUBLIC "-//W3C//DTD SVG 1.1//EN" "http://www.w3.org/Graphics/SVG/1.1/DTD/svg11.dtd">
<svg version="1.1" id="Capa_1" xmlns="http://www.w3.org/2000/svg" xmlns:xlink="http://www.w3.org/1999/xlink" x="0px" y="0px"
	 width="141.73px" height="141.73px" viewBox="0 0 141.73 141.73" enable-background="new 0 0 141.73 141.73" xml:space="preserve">
<g>
	<g>
		<g>
			<path fill="#E9BD4C" d="M101.291,3.399H41.337c-4.394,0-7.917,3.989-7.917,8.927v117.075c0,4.926,3.523,8.93,7.917,8.93h59.954
				c4.398,0,7.948-4.005,7.948-8.93V12.326C109.239,7.388,105.689,3.399,101.291,3.399L101.291,3.399z M102.547,126.951
				c0,2.593-1.824,4.697-4.175,4.697H45.091c-2.35,0-4.297-2.105-4.297-4.697V14.55c0-2.593,1.947-4.729,4.297-4.729h53.281
				c2.35,0,4.175,2.136,4.175,4.729V126.951z M101.338,126.225"/>
			<path fill="#E9BD4C" d="M84.999,53.413c-0.343-3.731-3.492-6.579-7.254-6.579H64.887c-3.766,0-6.895,2.848-7.258,6.579
				l-2.32,25.069c-0.042,0.617,0.166,1.222,0.59,1.673c0.42,0.451,1.006,0.705,1.623,0.705h4.398l0.077,40.517
				c0,1.233,1.083,2.17,2.317,2.17h3.735c1.249,0,2.228-0.937,2.228-2.17V87.743c0-0.574,0.513-0.937,1.068-0.937
				c0.574,0,1.025,0.362,1.025,0.937v33.633c0,1.233,0.964,2.17,2.212,2.17h3.72c1.233,0,2.289-0.937,2.289-2.17V80.859h4.517
				c0.601,0,1.203-0.254,1.611-0.705c0.436-0.451,0.648-1.041,0.601-1.657L84.999,53.413z M84.999,53.413"/>
			<path fill="#E9BD4C" d="M80.543,34.43c0,5.088-4.139,9.227-9.227,9.227c-5.092,0-9.231-4.14-9.231-9.227
				c0-5.107,4.139-9.231,9.231-9.231C76.404,25.199,80.543,29.323,80.543,34.43L80.543,34.43z M80.543,34.43"/>
		</g>
		<g>
			<path fill="#E9BD4C" d="M138.986,65.412l-8.238-8.238c-0.95-0.95-2.489-0.95-3.439,0l-8.238,8.238
				c-0.786,0.786-0.939,1.995-0.381,2.955c0.558,0.96,1.704,1.415,2.77,1.116l3.667-1.024v13.839c0,1.341,1.066,2.437,2.418,2.437
				h2.966c1.355,0,2.4-1.095,2.4-2.437V68.459l3.677,1.024c1.066,0.299,2.212-0.167,2.77-1.116
				C139.915,67.406,139.769,66.197,138.986,65.412L138.986,65.412z M138.986,65.412"/>
			<path fill="#E9BD4C" d="M20.309,71.88l-3.627,1.024V57.525c0-1.344-1.137-2.397-2.479-2.397h-2.976
				c-1.355,0-2.429,1.053-2.429,2.397v15.379L5.129,71.88c-1.064-0.299-2.201,0.167-2.759,1.116
				c-0.558,0.96-0.402,2.169,0.384,2.955l8.236,8.236c0.95,0.963,2.49,0.963,3.452,0l8.236-8.236
				c0.786-0.786,0.95-1.995,0.381-2.955C22.5,72.047,21.375,71.581,20.309,71.88L20.309,71.88z M20.309,71.88"/>
		</g>
	</g>
</g>
</svg>
