<?xml version="1.0" encoding="utf-8"?>
<!-- Generator: Adobe Illustrator 17.0.0, SVG Export Plug-In . SVG Version: 6.00 Build 0)  -->
<!DOCTYPE svg PUBLIC "-//W3C//DTD SVG 1.1//EN" "http://www.w3.org/Graphics/SVG/1.1/DTD/svg11.dtd">
<svg version="1.1" id="Capa_1" xmlns="http://www.w3.org/2000/svg" xmlns:xlink="http://www.w3.org/1999/xlink" x="0px" y="0px"
	 width="141.73px" height="141.73px" viewBox="0 0 141.73 141.73" enable-background="new 0 0 141.73 141.73" xml:space="preserve">
<g>
	<g>
		<path fill="#E9BD4C" d="M128.009,64.186v-0.152V41.133c0-10.314-7.28-14.105-14.105-14.105H27.452
			c-6.825,0-14.105,3.64-14.105,14.105v22.902v0.152C6.522,64.945,0,69.495,0,79.96v17.897c0,3.033,2.427,5.46,5.46,5.46h1.82
			v14.105c0,3.033,2.427,5.46,5.46,5.46h5.157c3.033,0,5.46-2.427,5.46-5.46v-14.257h95.097v14.257c0,3.033,2.427,5.46,5.46,5.46
			h5.157c3.033,0,5.46-2.427,5.46-5.46v-14.257h1.82c3.033,0,5.46-2.427,5.46-5.46V79.96
			C141.356,69.495,134.834,64.945,128.009,64.186z M18.807,41.133c0-7.128,4.702-8.645,8.645-8.645h86.452
			c3.943,0,8.645,1.517,8.645,8.645v22.902h-4.095V50.991c0-3.033-2.427-5.46-5.46-5.46H79.627c-3.033,0-5.46,2.427-5.46,5.46
			v13.044h-6.37V50.991c0-3.033-2.427-5.46-5.46-5.46H28.969c-3.033,0-5.46,2.427-5.46,5.46v13.044h-5.005V41.133H18.807z
			 M112.994,64.035H79.627V50.991h33.367V64.035z M62.64,64.035H29.272V50.991H62.64V64.035z M15.774,69.495h2.882h10.465h33.367
			h17.139h33.367h9.555h2.882c3.943,0,10.465,1.365,10.465,10.465v4.398H5.308V79.96C5.308,70.86,11.982,69.495,15.774,69.495z
			 M17.745,117.422h-5.157v-14.257h5.157V117.422z M128.767,117.422h-5.157v-14.257h5.157V117.422z M128.767,97.857h-5.157H17.745
			h-5.157h-7.28v-8.038h130.588v8.038H128.767z"/>
	</g>
</g>
</svg>
