<?xml version="1.0" encoding="utf-8"?>
<!-- Generator: Adobe Illustrator 17.0.0, SVG Export Plug-In . SVG Version: 6.00 Build 0)  -->
<!DOCTYPE svg PUBLIC "-//W3C//DTD SVG 1.1//EN" "http://www.w3.org/Graphics/SVG/1.1/DTD/svg11.dtd">
<svg version="1.1" id="Capa_1" xmlns="http://www.w3.org/2000/svg" xmlns:xlink="http://www.w3.org/1999/xlink" x="0px" y="0px"
	 width="141.73px" height="141.73px" viewBox="0 0 141.73 141.73" enable-background="new 0 0 141.73 141.73" xml:space="preserve">
<g>
	<g>
		<path fill="#E9BD4C" d="M39.368,56.567c0.761,0,1.522-0.254,2.03-1.015s0.507-1.522,0.507-2.284l-8.119-27.149
			c-0.254-0.507-0.507-0.761-0.761-1.269c-2.537-2.03-7.104-2.791-10.657-3.045c-0.254,0-0.254,0-0.507,0h-0.254h-0.507
			c-0.254,0-0.254,0-0.507,0c-3.552,0.254-8.119,0.761-10.657,3.045c-0.254,0.254-0.761,0.761-0.761,1.269L0.801,53.522
			c-0.254,0.761,0,1.522,0.507,2.284c0.507,0.761,1.269,1.015,2.03,1.015h5.328v5.836c-1.522,0.761-2.537,2.537-2.537,4.313
			c0,2.791,2.284,5.075,5.075,5.075s5.075-2.284,5.075-5.075c0-1.776-1.015-3.552-2.537-4.313V56.82h5.075v53.029H8.92
			c-1.522,0-2.537,1.015-2.537,2.537s1.015,2.537,2.537,2.537h24.612c1.522,0,2.537-1.015,2.537-2.537s-1.015-2.537-2.537-2.537
			h-9.895V56.82h15.731V56.567z M13.487,28.656c1.269-0.761,4.313-1.269,7.358-1.269h0.254h0.254h0.254
			c3.298,0,6.089,0.761,7.358,1.269l6.851,22.836H6.637L13.487,28.656z"/>
		<path fill="#E9BD4C" d="M135.683,81.939h-1.269V68.492c0-8.119-4.821-13.194-13.194-13.194H98.638
			c-4.821,0-8.373,1.776-10.657,4.567c-2.284-3.045-5.836-4.567-10.657-4.567H54.743c-8.119,0-13.194,4.821-13.194,13.194v13.448
			h-1.269c-3.045,0-5.582,2.537-5.582,5.582v13.955c0,3.045,2.537,5.582,5.582,5.582h1.269v5.075c0,1.522,1.015,2.537,2.537,2.537
			c1.522,0,2.537-1.015,2.537-2.537v-5.075h82.462v5.075c0,1.522,1.015,2.537,2.537,2.537s2.537-1.015,2.537-2.537v-5.075h1.269
			c3.045,0,5.582-2.537,5.582-5.582V87.522C141.265,84.477,138.728,81.939,135.683,81.939z M98.638,60.373h22.582
			c5.328,0,8.119,2.537,8.119,8.119v13.448H90.519V68.492C90.519,62.91,93.31,60.373,98.638,60.373z M46.624,68.492
			c0-5.328,2.537-8.119,8.119-8.119h22.582c5.328,0,8.119,2.537,8.119,8.119v13.448H46.624V68.492z M136.19,101.477
			c0,0.254-0.254,0.507-0.507,0.507H40.534c-0.254,0-0.507-0.254-0.507-0.507V87.522c0-0.254,0.254-0.507,0.507-0.507h95.148
			c0.254,0,0.507,0.254,0.507,0.507V101.477z"/>
		<circle fill="#E9BD4C" cx="56.266" cy="71.537" r="2.537"/>
		<circle fill="#E9BD4C" cx="76.057" cy="71.537" r="2.537"/>
		<circle fill="#E9BD4C" cx="99.907" cy="71.537" r="2.537"/>
		<circle fill="#E9BD4C" cx="119.952" cy="71.537" r="2.537"/>
	</g>
</g>
</svg>
