<?xml version="1.0" encoding="utf-8"?>
<!-- Generator: Adobe Illustrator 17.0.0, SVG Export Plug-In . SVG Version: 6.00 Build 0)  -->
<!DOCTYPE svg PUBLIC "-//W3C//DTD SVG 1.1//EN" "http://www.w3.org/Graphics/SVG/1.1/DTD/svg11.dtd">
<svg version="1.1" id="Capa_1" xmlns="http://www.w3.org/2000/svg" xmlns:xlink="http://www.w3.org/1999/xlink" x="0px" y="0px"
	 width="141.73px" height="141.73px" viewBox="0 0 141.73 141.73" enable-background="new 0 0 141.73 141.73" xml:space="preserve">
<path fill="#E9BD4C" d="M120.7,50.15h-11.367c-2.235,0-4.047,1.812-4.047,4.047c0,2.235,1.812,4.047,4.047,4.047h0.263v15.579
	c0,2.231-1.815,4.047-4.047,4.047h-1.876c-0.927-1.737-2.264-3.223-3.881-4.329V13.938c0-6.694-5.446-12.141-12.141-12.141H51.128
	c-6.694,0-12.141,5.446-12.141,12.141v62.456c-0.344,0.468-0.655,0.961-0.93,1.476h-1.876c-2.231,0-4.047-1.815-4.047-4.047V58.243
	h0.263c2.235,0,4.047-1.812,4.047-4.047c0-2.235-1.812-4.047-4.047-4.047H21.03c-2.235,0-4.047,1.812-4.047,4.047
	c0,2.235,1.812,4.047,4.047,4.047h3.01v15.579c0,6.694,5.446,12.141,12.141,12.141h0.451v6.975c0,2.235,1.812,4.047,4.047,4.047
	h18.85v10.419c0,2.235,1.812,4.047,4.047,4.047h3.242v8.032H55.009c-6.681,0-12.116,5.435-12.116,12.116v4.286
	c0,2.235,1.812,4.047,4.047,4.047c2.235,0,4.047-1.812,4.047-4.047V131.6c0-2.218,1.804-4.022,4.022-4.022h11.809v8.308
	c0,2.235,1.812,4.047,4.047,4.047s4.047-1.812,4.047-4.047v-8.308h11.809c2.218,0,4.022,1.804,4.022,4.022v4.286
	c0,2.235,1.812,4.047,4.047,4.047c2.235,0,4.047-1.812,4.047-4.047V131.6c0-6.681-5.435-12.116-12.116-12.116H74.912v-8.032h3.242
	c2.235,0,4.047-1.812,4.047-4.047V96.985h18.85c2.235,0,4.047-1.812,4.047-4.047v-6.975h0.451c6.694,0,12.141-5.446,12.141-12.141
	V58.244h3.01c2.235,0,4.047-1.812,4.047-4.047S122.935,50.15,120.7,50.15z M67.623,103.358v-6.373h6.483v6.373H67.623z
	 M44.726,88.891v-5.323c0-2.231,1.815-4.047,4.047-4.047h44.184c2.231,0,4.047,1.815,4.047,4.047v5.323H44.726z M51.128,9.891
	h36.523c2.231,0,4.047,1.815,4.047,4.047v57.49H48.773c-0.574,0-1.139,0.043-1.692,0.121v-57.61
	C47.081,11.707,48.896,9.891,51.128,9.891z"/>
</svg>
